<?xml version="1.0" encoding="utf-8"?>
<!-- Generator: Adobe Illustrator 23.0.1, SVG Export Plug-In . SVG Version: 6.00 Build 0)  -->
<svg version="1.1" id="Calque_1" xmlns="http://www.w3.org/2000/svg" xmlns:xlink="http://www.w3.org/1999/xlink" x="0px" y="0px"
	 viewBox="0 0 1752.5 1515.5" style="enable-background:new 0 0 1752.5 1515.5;" xml:space="preserve">
<style type="text/css">
	.st0{fill-rule:evenodd;clip-rule:evenodd;fill:url(#SVGID_1_);fill-opacity:0.1;}
	.st1{fill-rule:evenodd;clip-rule:evenodd;fill:url(#SVGID_2_);fill-opacity:0.1;}
	.st2{fill-rule:evenodd;clip-rule:evenodd;fill:url(#SVGID_3_);fill-opacity:0.1;}
	.st3{fill-rule:evenodd;clip-rule:evenodd;fill:url(#SVGID_4_);fill-opacity:0.1;}
	.st4{fill-rule:evenodd;clip-rule:evenodd;fill:url(#SVGID_5_);}
	.st5{fill-rule:evenodd;clip-rule:evenodd;fill:url(#SVGID_6_);}
	.st6{fill-rule:evenodd;clip-rule:evenodd;fill:url(#SVGID_7_);fill-opacity:0.1;}
	.st7{fill-rule:evenodd;clip-rule:evenodd;fill:url(#SVGID_8_);fill-opacity:0.1;}
	.st8{fill-rule:evenodd;clip-rule:evenodd;fill:url(#SVGID_9_);fill-opacity:0.1;}
	.st9{fill-rule:evenodd;clip-rule:evenodd;fill:url(#SVGID_10_);fill-opacity:0.1;}
</style>
<g id="CardsBckgrd">
	
		<linearGradient id="SVGID_1_" gradientUnits="userSpaceOnUse" x1="-238.1329" y1="1298.5482" x2="-237.5544" y2="1298.12" gradientTransform="matrix(495.7389 0 0 -494.9685 118302.5078 642936.5625)">
		<stop  offset="0" style="stop-color:#00B8FF;stop-opacity:0.25"/>
		<stop  offset="1" style="stop-color:#00B8FF"/>
	</linearGradient>
	<path class="st0" d="M288.2,3.8L62.1,221c-1,1-1.7,2.2-2.1,3.5c-0.4,1.3-0.5,2.7-0.2,4.2c0.2,1.5,0.7,3,1.5,4.4
		c0.8,1.4,1.9,2.8,3.2,4.1l271.1,255.2c0.7,0.7,1.6,1.2,2.6,1.6c1,0.4,2,0.7,3.1,0.8c1.1,0.1,2.2,0.1,3.3-0.1c1.1-0.2,2.2-0.5,3.1-1
		l201.4-101.1c1.3-0.7,2.5-1.5,3.4-2.4c0.9-0.9,1.7-1.9,2.1-3c0.5-1,0.7-2.1,0.7-3.2c0-1.1-0.3-2.1-0.9-3L309.2,7
		c-1.3-2-2.8-3.5-4.6-4.7c-1.7-1.2-3.6-1.9-5.5-2.2c-1.9-0.3-3.9-0.2-5.7,0.5C291.6,1.2,289.8,2.3,288.2,3.8"/>
	
		<linearGradient id="SVGID_2_" gradientUnits="userSpaceOnUse" x1="-237.4349" y1="1297.7327" x2="-237.2228" y2="1298.4763" gradientTransform="matrix(192.6652 0 0 -245.4732 46964.0039 319805.5)">
		<stop  offset="0" style="stop-color:#00B8FF;stop-opacity:0.25"/>
		<stop  offset="1" style="stop-color:#00B8FF"/>
	</linearGradient>
	<path class="st1" d="M1215.5,963.2c-0.7-0.1-1.5-0.1-2.2,0c-0.7,0.1-1.4,0.4-2,0.7c-0.6,0.4-1.1,0.8-1.6,1.4
		c-0.4,0.5-0.8,1.2-0.9,1.9l-52.7,201.3c-0.2,0.8-0.3,1.7-0.2,2.5c0.1,0.8,0.4,1.5,0.7,2.2c0.4,0.7,0.9,1.3,1.5,1.7
		c0.6,0.5,1.3,0.8,2.1,1l140.5,32.5c0.8,0.2,1.7,0.2,2.5,0.1c0.8-0.1,1.5-0.5,2.2-0.9c0.7-0.4,1.2-1,1.7-1.7c0.5-0.7,0.8-1.5,1-2.3
		l40.2-208.7c0.1-0.7,0.1-1.4-0.1-2.1c-0.2-0.7-0.5-1.3-0.9-1.9c-0.4-0.6-0.9-1.1-1.6-1.5c-0.6-0.4-1.3-0.7-2.1-0.8L1215.5,963.2z"
		/>
	
		<linearGradient id="SVGID_3_" gradientUnits="userSpaceOnUse" x1="-236.9481" y1="1298.8618" x2="-237.0089" y2="1298.0298" gradientTransform="matrix(157.2997 0 0 -200.2028 38657.9102 260227.875)">
		<stop  offset="0" style="stop-color:#00B8FF;stop-opacity:0.25"/>
		<stop  offset="1" style="stop-color:#00B8FF"/>
	</linearGradient>
	<path class="st2" d="M1457.6,265.7l-68.4-72.3c-0.4-0.5-0.9-0.8-1.3-1.1c-0.5-0.3-0.9-0.5-1.3-0.6c-0.4-0.1-0.8-0.1-1.2-0.1
		c-0.4,0.1-0.7,0.3-0.9,0.5l-81.3,99.8c-0.4,0.5-0.7,1.1-0.8,1.8c-0.1,0.7-0.1,1.4,0,2.1c0.1,0.7,0.4,1.5,0.8,2.2
		c0.4,0.7,0.9,1.4,1.5,1.9l98.1,90.5c0.5,0.5,1.1,0.9,1.7,1.1c0.6,0.2,1.1,0.3,1.7,0.2c0.5-0.1,1-0.3,1.4-0.6c0.4-0.3,0.8-0.8,1-1.4
		l50.8-118.6c0.1-0.3,0.2-0.8,0.2-1.2c0-0.4-0.1-0.9-0.3-1.4c-0.2-0.5-0.4-1-0.7-1.5C1458.3,266.6,1458,266.1,1457.6,265.7"/>
	
		<linearGradient id="SVGID_4_" gradientUnits="userSpaceOnUse" x1="-238.0829" y1="1298.3186" x2="-237.3366" y2="1298.0178" gradientTransform="matrix(236.0979 -85.9326 -105.4121 -289.6172 193536.0625 356508.1562)">
		<stop  offset="0" style="stop-color:#00B8FF;stop-opacity:0.25"/>
		<stop  offset="1" style="stop-color:#00B8FF"/>
	</linearGradient>
	<path class="st3" d="M565.9,806.8L437.5,901c-0.8,0.6-1.4,1.2-1.8,2c-0.5,0.7-0.8,1.6-0.9,2.4c-0.2,0.8-0.2,1.7,0,2.5
		c0.2,0.8,0.5,1.6,1,2.3l152.7,210.4c0.6,0.9,1.4,1.5,2.2,2c0.8,0.5,1.8,0.8,2.7,1c0.9,0.1,1.9,0.1,2.8-0.1s1.8-0.7,2.6-1.3
		l136.9-107.9c0.8-0.6,1.4-1.4,1.8-2.2s0.7-1.7,0.8-2.6c0.1-0.9,0-1.9-0.3-2.8c-0.3-0.9-0.7-1.8-1.4-2.6L575.2,807.8
		c-0.6-0.7-1.2-1.2-2-1.6c-0.7-0.4-1.6-0.6-2.4-0.7c-0.8-0.1-1.7,0-2.5,0.2c-0.8,0.2,4.4,0.6,3.6,1.1"/>
	
		<linearGradient id="SVGID_5_" gradientUnits="userSpaceOnUse" x1="-237.9874" y1="1298.9015" x2="-237.9874" y2="1297.9015" gradientTransform="matrix(465.8621 0 0 -276.8092 111102.25 360704.1562)">
		<stop  offset="0" style="stop-color:#00DDFF;stop-opacity:0.1"/>
		<stop  offset="1" style="stop-color:#00B8FF;stop-opacity:0.1"/>
	</linearGradient>
	<path class="st4" d="M173.5,1156.7L5.8,1202.4c-1.3,0.3-2.4,0.8-3.3,1.2c-0.9,0.5-1.6,1-2,1.5c-0.4,0.5-0.6,1.1-0.6,1.6
		c0.1,0.5,0.4,1,1.1,1.5L320,1428.8c2.1,1.4,4.3,2.5,6.6,3.2c2.3,0.7,4.6,1.1,6.7,1.1c2.2,0,4.2-0.4,6-1.1c1.8-0.7,3.3-1.9,4.4-3.3
		l121.7-157.1c0.4-0.5,0.5-1.2,0.3-1.9c-0.2-0.7-0.7-1.4-1.4-2.1c-0.7-0.7-1.6-1.5-2.8-2.1c-1.1-0.7-2.4-1.3-3.9-1.9l-274.3-106.3
		c-0.7-0.3-1.5-0.5-2.3-0.6c-0.8-0.2-1.7-0.3-2.6-0.3c-0.9,0-1.8,0-2.6,0C175,1156.4,174.2,1156.5,173.5,1156.7"/>
	
		<linearGradient id="SVGID_6_" gradientUnits="userSpaceOnUse" x1="-236.351" y1="1298.8259" x2="-236.351" y2="1297.8259" gradientTransform="matrix(111.1935 0 0 -155.9161 26475.668 203218.5469)">
		<stop  offset="0" style="stop-color:#00DDFF;stop-opacity:0.1"/>
		<stop  offset="1" style="stop-color:#00B8FF;stop-opacity:0.1"/>
	</linearGradient>
	<path class="st5" d="M201.2,733l-60.7-22.2c-0.3-0.1-0.6-0.1-0.7,0c-0.2,0.1-0.3,0.3-0.4,0.6c-0.1,0.3,0,0.6,0.1,1
		c0.1,0.4,0.2,0.9,0.5,1.4l48.5,111.7c0.2,0.4,0.4,0.8,0.6,1.1c0.2,0.4,0.5,0.8,0.8,1.1c0.3,0.4,0.6,0.7,0.9,1
		c0.3,0.3,0.6,0.6,0.9,0.7l56.8,36.6c0.4,0.3,0.8,0.4,1,0.5c0.3,0.1,0.5,0.1,0.7,0c0.2-0.1,0.3-0.3,0.3-0.5c0-0.2,0-0.6-0.2-1
		L206,738.6c-0.2-0.6-0.5-1.2-0.9-1.8c-0.4-0.6-0.8-1.2-1.2-1.7s-0.9-1-1.4-1.3C202.1,733.4,201.7,733.1,201.2,733"/>
	
		<linearGradient id="SVGID_7_" gradientUnits="userSpaceOnUse" x1="-237.3002" y1="1297.9569" x2="-237.983" y2="1298.6425" gradientTransform="matrix(262.6218 0 0 -322.8484 63934.5391 420545.375)">
		<stop  offset="0" style="stop-color:#00B8FF;stop-opacity:0.25"/>
		<stop  offset="1" style="stop-color:#00B8FF"/>
	</linearGradient>
	<path class="st6" d="M1526.3,1195.8l-115.2,104c-0.6,0.6-1.2,1.2-1.7,1.8c-0.5,0.6-1,1.3-1.4,1.9c-0.4,0.6-0.7,1.2-0.9,1.8
		c-0.2,0.6-0.3,1.1-0.3,1.5L1421,1510c0.1,1.4,0.4,2.5,0.9,3.3c0.5,0.9,1.2,1.5,2,1.8c0.8,0.3,1.8,0.4,2.8,0.1
		c1.1-0.3,2.2-0.8,3.4-1.7l233.3-179.6c1.5-1.2,2.7-2.5,3.7-3.8c1-1.4,1.6-2.8,2-4.1c0.3-1.4,0.4-2.7,0.1-3.9
		c-0.3-1.2-0.9-2.3-1.9-3.2l-134.2-125.9c-0.3-0.2-0.6-0.3-1.1-0.3c-0.5,0-1,0.2-1.7,0.4c-0.6,0.3-1.3,0.6-2,1.1
		C1527.7,1194.6,1527,1195.2,1526.3,1195.8"/>
	
		<linearGradient id="SVGID_8_" gradientUnits="userSpaceOnUse" x1="-237.6245" y1="1298.7927" x2="-238.0162" y2="1298.0248" gradientTransform="matrix(343.6022 0 0 -327.1251 83290.9297 425064.7188)">
		<stop  offset="0" style="stop-color:#00B8FF;stop-opacity:0.25"/>
		<stop  offset="1" style="stop-color:#00B8FF"/>
	</linearGradient>
	<path class="st7" d="M1751,295.7l-101.9-136.2c-0.6-0.8-1.3-1.4-2.1-1.9c-0.8-0.5-1.6-0.8-2.5-1c-0.9-0.2-1.8-0.2-2.6,0
		c-0.9,0.2-1.7,0.5-2.5,1l-227,160.9c-0.9,0.7-1.7,1.5-2.3,2.4c-0.6,0.9-0.9,1.9-1.1,2.9c-0.2,1-0.1,2.1,0.1,3.1
		c0.2,1,0.7,2,1.4,2.9l117.3,151c0.7,0.9,1.5,1.5,2.4,2c0.9,0.5,1.9,0.8,2.9,0.8c1,0.1,2,0,3-0.3c1-0.3,2-0.8,2.8-1.6l211.1-176.1
		c0.7-0.6,1.2-1.3,1.6-2.1c0.4-0.8,0.6-1.7,0.7-2.5s0-1.8-0.3-2.7C1751.9,297.4,1751.5,296.5,1751,295.7"/>
	
		<linearGradient id="SVGID_9_" gradientUnits="userSpaceOnUse" x1="-237.2194" y1="1297.8567" x2="-237.6279" y2="1298.7562" gradientTransform="matrix(232.423 0 0 -257.8036 56084.8867 336064.7812)">
		<stop  offset="0" style="stop-color:#00B8FF;stop-opacity:0.25"/>
		<stop  offset="1" style="stop-color:#00B8FF"/>
	</linearGradient>
	<path class="st8" d="M913.3,1206.7c-0.6-0.5-1.2-0.9-1.8-1.2c-0.6-0.3-1.3-0.4-1.9-0.4c-0.6,0-1.2,0.1-1.8,0.3
		c-0.6,0.2-1.1,0.6-1.5,1l-130,153.7c-0.6,0.7-1,1.5-1.3,2.3c-0.3,0.8-0.3,1.7-0.2,2.5c0.1,0.8,0.3,1.7,0.8,2.4c0.4,0.8,1,1.4,1.7,2
		l119.2,92.3c0.7,0.5,1.4,0.8,2.1,1c0.7,0.2,1.5,0.2,2.3,0c0.7-0.2,1.5-0.5,2.1-0.9c0.6-0.5,1.2-1.1,1.7-1.8l101.9-163.8
		c0.3-0.5,0.5-1.1,0.6-1.7c0.1-0.6,0.1-1.3-0.1-1.9c-0.1-0.6-0.4-1.3-0.7-1.9c-0.3-0.6-0.8-1.1-1.3-1.6L913.3,1206.7z"/>
	
		<linearGradient id="SVGID_10_" gradientUnits="userSpaceOnUse" x1="-236.9312" y1="1298.7272" x2="-236.55" y2="1297.7272" gradientTransform="matrix(137.0159 0 0 -100.0848 33078.4727 130471.4844)">
		<stop  offset="0" style="stop-color:#00B8FF;stop-opacity:0.25"/>
		<stop  offset="1" style="stop-color:#00B8FF"/>
	</linearGradient>
	<path class="st9" d="M610.6,489.3L571.3,532c-0.3,0.3-0.5,0.6-0.6,0.9c-0.1,0.3-0.1,0.7-0.1,1c0.1,0.3,0.2,0.6,0.4,0.9
		c0.2,0.3,0.5,0.5,0.9,0.7l97.2,52.4c0.4,0.2,0.9,0.4,1.3,0.4c0.5,0.1,0.9,0.1,1.3,0c0.4-0.1,0.8-0.2,1.2-0.5
		c0.4-0.2,0.7-0.5,0.9-0.9l33.4-50.5c0.2-0.3,0.3-0.6,0.3-0.9c0-0.3,0-0.7-0.2-1c-0.1-0.3-0.3-0.6-0.6-0.9s-0.6-0.5-1-0.7
		l-91.1-44.4c-0.3-0.2-0.7-0.3-1.1-0.3c-0.4-0.1-0.8-0.1-1.2,0c-0.4,0.1-0.7,0.2-1.1,0.3C611.1,488.9,610.8,489.1,610.6,489.3"/>
</g>
</svg>
