<?xml version="1.0" encoding="utf-8"?>
<!-- Generator: Adobe Illustrator 23.0.1, SVG Export Plug-In . SVG Version: 6.00 Build 0)  -->
<svg version="1.1" id="Calque_1" xmlns="http://www.w3.org/2000/svg" xmlns:xlink="http://www.w3.org/1999/xlink" x="0px" y="0px"
	 viewBox="0 0 2202.8 1566.7" style="enable-background:new 0 0 2202.8 1566.7;" xml:space="preserve">
<style type="text/css">
	.st0{opacity:0.6;fill:#2B5170;enable-background:new    ;}
	.st1{display:none;}
	.st2{display:inline;}
	.st3{fill:#FFB745;}
	.st4{clip-path:url(#SVGID_2_);}
	.st5{fill:#0000FF;}
	.st6{clip-path:url(#SVGID_4_);}
	.st7{clip-path:url(#SVGID_6_);}
	.st8{clip-path:url(#SVGID_8_);}
	.st9{clip-path:url(#SVGID_10_);}
	.st10{clip-path:url(#SVGID_12_);}
	.st11{clip-path:url(#SVGID_14_);}
	.st12{clip-path:url(#SVGID_16_);}
	.st13{clip-path:url(#SVGID_18_);}
	.st14{clip-path:url(#SVGID_20_);}
	.st15{clip-path:url(#SVGID_22_);}
	.st16{clip-path:url(#SVGID_24_);}
	.st17{opacity:0.4;enable-background:new    ;}
	.st18{enable-background:new    ;}
	.st19{fill:#2B5170;}
</style>
<g>
	<g id="Calque_1-2">
		<path id="Web" class="st0" d="M1479.4,1558.7l-7.6-3.8l-1.1,3.3l-1.5-0.7L995,1345.3l-86,128.1l-102.5-94.2l-16.3,5.3l-1-2.8
			l14.3-5.3l-7.1-6.5l-22.3,6l13.2-14.3l-231.5-212.9l-32.2-14.4l-41,8.8l13.2-49.5l-20.3-18.7l-118,360.3l6.1,10l-7.7-5.2
			l-6.8,20.9l-14.4-26.4l3.4,15.2L15.9,1210.4l1.7-2.4l306.4,207l-139.6-256l2.6-1.5l130.2,212.2L215.9,912.8l-8.6,250.4l-3-0.1
			l5.9-276.1l-12-53.8l5.8-34.7l-63-86.6l70.2,43.4l2.1-12.4l3,0.3l-0.3,15l2.2,1.4l0.2-5.2l84.2,57.4l212.9,131.8l39.9-121.9
			l2.9,0.8l-25.5,131.8l0.2,0.2l35.3-132.6l2.9,0.7l-32,135.8l203.4,125.9l12.3-2.7L717,828L328.3,515l-28.7-248.7l17.6,243.7
			l-3,0.2l-44-499l3-0.3l13.3,115.7L277.8,4.8l3.3,5.6l422.5,727.4l-22.7-152l168.5,344.9l128.1,103.1l14.5-3.1l24.5-39.9
			L719.6,596.3l-31-3.6l0.3-3l28.2,3.3L653,507.8l-31.1-6.2l-0.3-0.5l-331-475l2.4-1.8L654.7,505l587.8,117.7l14.2-23.2l49.8-299.7
			l1.1-0.2l165.2-26h0.2l283,18l0.1,3L1474.3,324l291.1-16.6l-2.5,2.7l-288.4,312.2l4.4,22.5l13.3,27.8l49.5,9.9l92.6-38.8l1.3,2.7
			l-81.4,47.2l-54.9-6.4L1601,899.7L2190.8,773l-5.6,9.5l6.8-3.7l1.4,2.6l-11.4,6.4l-233.1,401.1l-2.6-1.5L2177,790.7l-490.8,274.9
			h-0.3l-123.5,6.9l32.9,168.4l-2.9,0.6l-33.5-168.7l-101.2,5.6l20.4,449.1l102.4-300.8l2.9,0.9l-94.6,321.9l-10-6.2L1479.4,1558.7z
			 M996.7,1342.8l472.2,211.3l0.2-0.6l-459.8-229.4L996.7,1342.8z M1472.8,1552l3.4,1.7l-0.5-10.2L1472.8,1552z M1008.2,1320.2
			l1.2,0.6l460.6,229.8l3.6-10.5l-468-289.7l22.5,46l-2.7,1.4l-31.8-54.8l-58.9-36.5L914,1229l105,71.6l-64,23.5l0.4,0.2l58-15.6
			l0.9,2.9l-50.5,16.4l30.2,13.5L1008.2,1320.2z M1478.5,1539.7l8.4,5.2l73.5-250.2l-82.1,241.1L1478.5,1539.7z M1003.2,1245.5
			l471.4,291.8l0.7-2l-20.8-456.7l-173.6,9.6l-98.4,104.5l5-33.7l-24.4,21.9l12,16l-119.5-96.2l-24.4,1.3l-64.2,69.5L1003.2,1245.5z
			 M809.8,1378.2l98.6,90.7l83.8-124.8l-32.7-14.7L809.8,1378.2z M332.5,1424.3l15.9,29.1l4.9-15.1L332.5,1424.3z M71.3,1247.8
			l262.2,194.8l-3.9-17.6l-2.4-4.4L71.3,1247.8z M331.5,1419.9l22.4,15.1l-29.8-48.6L331.5,1419.9z M322.1,1377.5l33.4,54.4
			l117.7-359.2L262.6,879.2l-43.5-59.9l-2.8,81.5L322.1,1377.5z M215.1,1208.9l112.1,205.5l-8-35.9L215.1,1208.9z M799.9,1369.1
			l6.8,6.3l81.8-30L799.9,1369.1z M789.6,1363.7l-6.2,6.7l10.5-2.8L789.6,1363.7z M791.6,1361.5l5.7,5.2l122.6-32.9l27.1-10
			l-85.3-38.2L791.6,1361.5z M564.5,1152.6l224.9,206.8l6.1-6.6L780,1249.1L564.5,1152.6z M920.8,1336.6l-54.3,19.9l88.9-29
			l-0.3-0.2L920.8,1336.6z M783.2,1250.5l14.4,96.3l43.4-70.5L783.2,1250.5z M843.7,1277.6l-42.3,68.8l57.3-62.1L843.7,1277.6z
			 M863.8,1283.3l87.2,39l61.5-22.6L912,1231.2L863.8,1283.3z M845.3,1275l15.6,7l48.5-52.5l-25.5-17.4L845.3,1275z M782.7,1247
			l59.8,26.8l39-63.4l-116.1-79.2L782.7,1247z M999,1246.4l8,13.8l-6.2-12.7L999,1246.4z M557.5,1146.2l221.9,99.3L762,1128.9
			l-16.1-11l-196.4,10.9l-8.8,1.9L557.5,1146.2z M995.8,1240.9l2.6,1.6l-33.5-68.6l-4.9,5.3L995.8,1240.9z M936.8,1204.4l53.7,33.2
			l-32.6-56L936.8,1204.4z M885.5,1209.5l26,17.7l20.6-22.2l-31.7-19.6L885.5,1209.5z M764.8,1127.2l118.3,80.7l14.8-24l-110.2-68.2
			l-24.3,1.3L764.8,1127.2z M901.9,1182.8l32.2,20l22.1-23.9l-25.2-43.4L901.9,1182.8z M1191.1,1155.8l-4.1,27.8l89.7-95.3
			l-11.4,0.6L1191.1,1155.8z M792.8,1115.3l106.6,66l30-48.8l-13.9-24L792.8,1115.3z M1060.2,1100.4l98.1,79l-61-81.1L1060.2,1100.4
			z M1100.9,1098.2l59.8,79.4l13.9-83.5L1100.9,1098.2z M932.8,1132.5l25.6,44l5-5.5l-24-49.2L932.8,1132.5z M1177.6,1093.9
			l-13.7,82.3l24.3-21.9l9.1-61.5L1177.6,1093.9z M941.3,1118.8l24.4,49.9l61.3-66.4l-78.3,4.3L941.3,1118.8z M1200.4,1092.6
			l-8.6,58.5l68.7-61.9L1200.4,1092.6z M528.6,1133.3l20.3,9.1l-11.8-10.9L528.6,1133.3z M498.4,1095.9l-11.5,43.3l32.2-6.9
			l-9.5-4.2l22.4-1.2l-26.6-24.5l-7.1,30.2l-2.9-0.6l6.4-33L498.4,1095.9z M522,1130.3l2,0.9l6.2-1.3L522,1130.3z M918.8,1108.3
			l12.3,21.3l6.7-10.9l-5.4-11.1L918.8,1108.3z M506.1,1099l30,27.6l12.9-0.7l158.5-34.1L535.5,974.4L506.1,1099z M750.8,1117.7
			l10.6,7.2l-1.2-7.8L750.8,1117.7z M711,1094.1l-142.7,30.7l173.5-9.6L711,1094.1z M935.7,1107.3l4,8.2l5.4-8.8L935.7,1107.3z
			 M715,1093.2l31.7,21.6l13.1-0.7l-2.6-17.3l-15.1-9.4L715,1093.2z M760.5,1098.8l2.3,15.1l20.3-1.1L760.5,1098.8z M760,1095
			l28.4,17.6l125.4-7l-28.4-48.9l-127,27.3L760,1095z M888.4,1056l28.7,49.4l13.9-0.8l-25.6-52.3L888.4,1056z M908.5,1051.7
			l25.8,52.8l12.8-0.7l37.2-60.6l-7.6-6.1L908.5,1051.7z M986.6,1045l-35.9,58.5l79.3-4.4l10.2-11L986.6,1045z M1042.5,1090
			l-8.2,8.9l18-1L1042.5,1090z M1044.5,1087.8l12.2,9.8l38.4-2.1l-25.9-34.5L1044.5,1087.8z M499.2,1092.7l3.1,2.8l10.2-52.8
			L499.2,1092.7z M1071.2,1058.8l27.5,36.5l76.3-4.3l16.7-100.3l-71.9,15.5L1071.2,1058.8z M746.2,1086.6l10.3,6.4l-1.2-8.3
			L746.2,1086.6z M536.2,971.2l175.4,119.7l26.8-5.8L538.5,961.4L536.2,971.2z M1194.9,990.1l-16.7,100.8l19.6-1.1l15.2-103.6
			L1194.9,990.1z M476.6,1071.8l20.2,18.6l24-90.2l6.1-31.6l-13.5-9.2L476.6,1071.8z M1216.2,985.5l-15.3,104.1l63.2-3.5l97.8-88
			l2.1,2.1L1284,1085l170.4-9.5l-6.3-139.8L1216.2,985.5z M988.2,1042.4l54,43.5l25.2-27.3l-26.6-35.4l-47,10.1L988.2,1042.4z
			 M1336.7,1024.7l-67.9,61.2l10.9-0.6L1336.7,1024.7z M720.5,830.7l37.4,250.2l125.8-27L783.6,881.6L720.5,830.7z M1451,935
			l6.4,140.3l100.8-5.6l-30-151.3L1451,935z M264.9,877.2l209.3,192.4l36.7-112L300.9,814.3L221,764.9l-1.7,49.5L264.9,877.2z
			 M1532.1,917.6l29.7,151.9l123.6-6.9L2025.8,872l-350.7,189.3l-0.7-1.4l-75.1-156.7L1532.1,917.6z M523.7,1000.8l-11.3,58.2
			l20.4-86.5l-1.3-0.9L523.7,1000.8z M1602.3,902.5l74.1,154.6l503.7-271.8l4.6-7.9L1602.3,902.5z M1044,1022.5l25.4,33.8l45.3-49
			L1044,1022.5z M790.1,886.8l96.7,166.4l17.3-3.7l-57.2-117L790.1,886.8z M852.5,937l54.7,111.9l66.5-14.3L852.5,937z
			 M980.5,1036.2l5.4,4.3l3.9-6.3L980.5,1036.2z M1018.4,993.4l-22.4,36.4l42.9-9.2L1018.4,993.4z M1020,990.6l22,29.3l76.2-16.4
			l87-94.1l41.7-251.5l-21.1-2.5L1020,990.6z M1204.4,914.8l-81,87.7l68.9-14.8L1204.4,914.8z M723.7,596.8L1018.1,988l204.5-333
			L723.7,596.8z M1208.1,910.8l-12.7,76.2l18.1-3.9l13.7-93L1208.1,910.8z M1230.8,886.1l-14.2,96.3l231.3-49.7L1436.4,680
			l-13.7-1.6L1230.8,886.1z M532.3,968.6l1.2,0.8l2.3-9.7l-1-0.6L532.3,968.6z M514.4,956.3l13.1,9l1.8-9.5l-12.3-7.6L514.4,956.3z
			 M532.1,957.4l-0.2,0.8L532.1,957.4L532.1,957.4z M535.6,956.1l0.9,0.6l8.2-34.7L535.6,956.1z M358.4,849.9l153.4,104.7l2.6-8.1
			L358.4,849.9z M518,945.2l12,7.4l20.8-107.2L518,945.2z M212.9,899.4l-0.7,33.9l1.1-32.2L212.9,899.4z M1439.5,680.4l11.4,251.6
			l76.7-16.5l-45.7-230.2L1439.5,680.4z M785.9,879.6l57.9,46.6L686.7,604.6l21,140.2L785.9,879.6z M1486.8,685.9l44.7,228.8
			l66.5-14.3l-102.4-213.5L1486.8,685.9z M1250,658.2l-41,247.1l19-20.6l33.2-225.2L1250,658.2z M213.2,886.8l0.5,2.4l2.5-73.8
			l-1.5-2.1L213.2,886.8z M1264.2,659.9l-32.6,221L1419,678L1264.2,659.9z M201.3,833.1l9.2,41.3l1.4-65.1l-5.4-7.4L201.3,833.1z
			 M719.8,826.3l59.6,48l-70.6-121.5L719.8,826.3z M331.2,513.3l385.2,310.2l-11.6-77.8l-423-728.3l12.9,178.8L331.2,513.3z
			 M214.9,808.3l1.6,2.1l1.6-47.4l-2.2-1.3L214.9,808.3z M207.2,797.8l4.8,6.6l0.9-40.4L207.2,797.8z M152.5,722.5l52.2,71.9l6-35.9
			L152.5,722.5z M221.1,761.5l24,14.8L221.2,760L221.1,761.5z M1497.6,684.1l55.8,6.5l60.4-35.1l-71.9,30.2l-48.2-9.6L1497.6,684.1z
			 M1486.2,682.8l7.9,0.9l-4-8.3l-5.5-1.1L1486.2,682.8z M1439.3,677.3l41.9,4.9l-1.8-9l-40.7-8.2L1439.3,677.3z M1425.2,675.7
			l11.1,1.3l-0.6-12.5h-0.2L1425.2,675.7z M1264.6,656.9l157,18.3l10.6-11.5L1268.4,631L1264.6,656.9z M1483.9,671.1l4.5,0.9
			l-7.4-15.4L1483.9,671.1z M1438.6,662l40.2,8l-6.2-31l-4.6-9.6l-29.4,31.9L1438.6,662z M1268.8,628l165.7,33.2l1-1.1l-5-108.8
			l-61.7-128.6L1277,572.1L1268.8,628z M1433.9,558.2l4.5,98.8l28.2-30.6L1433.9,558.2z M1250.5,655.2l11.1,1.3l3.9-26.2l-10.5-2.1
			L1250.5,655.2z M1227.6,652.6l19.9,2.3l4.5-27.2l-8.1-1.6L1227.6,652.6z M721.2,593.5l503.1,58.8l16.4-26.8L657.4,508.6
			L721.2,593.5z M1255.4,625.3l10.5,2.1l7.2-48.9l-13.6,22.1L1255.4,625.3z M1470.2,627l0.1,0.1L1470.2,627L1470.2,627z
			 M1245.6,623.4l6.9,1.4l2.9-17.3L1245.6,623.4z M1433.6,550.5l35.2,73.5l0.7-0.8L1427.2,410L1433.6,550.5z M1418.6,336.2l0.7,3.8
			l54.5,278.9l284.4-307.9l-347.3,19.8l-0.2-3l327.2-34.1l-265-16.9l-158.6,25l55,114.6L1418.6,336.2z M1309.1,302.5l-48.2,290.3
			l13.3-21.8l39.7-269.3L1309.1,302.5z M1315.6,311.3l-37.4,253.2l89.2-145.2L1315.6,311.3z M1370.9,419.6l59.5,124l-7-153.3
			l2.7-0.3l-9-45.7L1370.9,419.6z M623.7,498.8l26.6,5.3L340.1,91.9L623.7,498.8z M283.1,122.3l17.6,200.1l-9.1-125.8L283.1,122.3z"
			/>
		<g id="Stroke" class="st1">
			<g class="st2">
				<path class="st3" d="M320.5,520.2l-0.3-0.2L27.6,246l0.4-0.4L281.2,0l0.3,0.5l264.2,407.1L320.5,520.2z M29,246l291.7,273
					l223.7-111.7L281.1,1.6L29,246z"/>
				<g>
					<defs>
						<path id="SVGID_1_" d="M320.5,520.2l-0.3-0.2L27.6,246l0.4-0.4L281.2,0l0.3,0.5l264.2,407.1L320.5,520.2z M29,246l291.7,273
							l223.7-111.7L281.1,1.6L29,246z"/>
					</defs>
					<clipPath id="SVGID_2_">
						<use xlink:href="#SVGID_1_"  style="overflow:visible;"/>
					</clipPath>
					<g class="st4">
						<path class="st5" d="M268.6,22.6l-226,217.3c-1,1-1.7,2.2-2.1,3.5c-0.4,1.4-0.5,2.8-0.2,4.2c0.2,1.6,0.8,3.1,1.5,4.4
							c0.8,1.5,1.9,2.9,3.2,4.1l271.1,255.2c0.8,0.7,1.6,1.3,2.6,1.6c1,0.4,2.1,0.7,3.1,0.8c1.1,0.1,2.2,0.1,3.3-0.1
							c1.1-0.2,2.1-0.5,3.1-1l201.4-101.1c1.2-0.6,2.4-1.4,3.4-2.4c0.9-0.9,1.6-1.9,2.1-3c0.5-1,0.7-2.1,0.7-3.2c0-1.1-0.4-2.1-1-3
							L289.7,25.9c-1.2-1.8-2.7-3.4-4.6-4.7c-1.7-1.1-3.5-1.9-5.5-2.2c-1.9-0.3-3.9-0.1-5.7,0.5C271.9,20.1,270.1,21.2,268.6,22.6
							 M327.8,512.2c-0.9,0.4-1.9,0.8-2.8,0.9c-1,0.2-2,0.2-3,0.1c-1-0.1-1.9-0.4-2.9-0.7c-0.9-0.4-1.7-0.9-2.4-1.5L45.7,255.4
							c-1.2-1.1-2.1-2.3-2.9-3.7c-0.7-1.2-1.2-2.6-1.4-4c-0.2-1.3-0.1-2.6,0.2-3.8c0.3-1.2,1-2.3,1.9-3.2l226-216.8
							c1.4-1.3,3-2.3,4.8-2.9c1.7-0.5,3.5-0.7,5.2-0.4c1.8,0.3,3.5,1,5,2c1.7,1.1,3.1,2.6,4.2,4.2l245.4,373.6
							c0.5,0.8,0.8,1.8,0.9,2.7c0,1-0.2,2-0.6,2.9c-0.5,1-1.1,1.9-1.9,2.7c-0.9,0.9-1.9,1.6-3.1,2.2L327.8,512.2 M329.9,514.2
							c-1.3,0.6-2.7,1.1-4.1,1.3c-1.4,0.2-2.9,0.3-4.4,0.1c-1.4-0.2-2.8-0.5-4.1-1.1c-1.3-0.5-2.4-1.2-3.4-2.2L42.7,258.2
							c-1.7-1.6-3.1-3.4-4.2-5.4c-1-1.8-1.7-3.8-2-5.8c-0.3-1.9-0.2-3.7,0.3-5.6c0.5-1.8,1.4-3.3,2.7-4.6L265.6,18.1
							c2-1.9,4.3-3.4,6.9-4.2c2.5-0.8,5.1-1,7.6-0.6c2.6,0.4,5.1,1.4,7.3,2.9c2.4,1.7,4.4,3.8,6,6.2l244.7,376.1
							c0.8,1.2,1.2,2.6,1.2,4c0,1.4-0.3,2.9-0.9,4.2c-0.7,1.5-1.7,2.8-2.8,3.9c-1.3,1.3-2.8,2.3-4.5,3.1L329.9,514.2 M264.7,16.8
							L38.6,236c-1.4,1.4-2.4,3.1-2.9,5c-0.5,1.9-0.6,4-0.3,5.9c0.4,2.2,1.1,4.3,2.2,6.2c1.2,2.1,2.7,4.1,4.5,5.7l271.2,253.8
							c1.1,1,2.3,1.8,3.6,2.3c1.4,0.6,2.9,1,4.4,1.1c1.6,0.2,3.1,0.1,4.7-0.1c1.5-0.2,3-0.7,4.4-1.4l201.1-100.4
							c1.8-0.9,3.4-2,4.8-3.4c1.2-1.2,2.3-2.6,3-4.2c0.7-1.4,1-2.9,1-4.5c0-1.5-0.4-3-1.2-4.2L294.5,21.3c-1.7-2.6-3.9-4.9-6.5-6.7
							c-2.3-1.6-5-2.7-7.8-3.1c-2.7-0.4-5.5-0.2-8.1,0.6C269.3,13.1,266.8,14.7,264.7,16.8"/>
						<path class="st3" d="M323.3,516.8c-0.7,0-1.4,0-2.1-0.1c-1.6-0.2-3.1-0.6-4.6-1.2c-1.4-0.6-2.7-1.4-3.8-2.4L41.7,259.2
							c-1.8-1.7-3.4-3.7-4.6-5.9c-1.1-2-1.9-4.1-2.2-6.4c-0.3-2.1-0.2-4.2,0.3-6.2c0.5-2,1.6-3.7,3.1-5.2L264.4,16.4
							c2.2-2.1,4.8-3.7,7.6-4.7c2.7-0.9,5.6-1.1,8.4-0.7c2.9,0.5,5.6,1.5,8,3.2c2.6,1.8,4.9,4.1,6.6,6.8l244.4,376.7
							c0.9,1.3,1.4,2.9,1.4,4.5c0,1.6-0.3,3.2-1,4.7c-0.8,1.6-1.8,3.1-3.1,4.3c-1.4,1.4-3.1,2.6-4.9,3.4L330.6,515.1
							c-1.4,0.7-3,1.2-4.5,1.4C325.2,516.7,324.2,516.8,323.3,516.8z M277.6,13.5c-1.7,0-3.3,0.3-4.9,0.8c-2.5,0.8-4.8,2.3-6.7,4.1
							L39.8,237.2c-1.2,1.2-2.1,2.7-2.6,4.4c-0.5,1.7-0.6,3.6-0.3,5.4c0.3,2,1,3.9,2,5.6c1.1,1.9,2.4,3.7,4.1,5.2L314.2,512
							c0.9,0.9,2,1.6,3.2,2c1.3,0.5,2.6,0.9,4,1c1.4,0.2,2.8,0.1,4.2-0.1c1.4-0.2,2.7-0.6,4-1.2l201.1-100.5
							c1.6-0.8,3.1-1.8,4.3-3.1c1.1-1.1,2-2.3,2.7-3.8c0.6-1.2,0.9-2.6,0.9-4c0-1.3-0.4-2.6-1.2-3.7L293,22.6
							c-1.5-2.4-3.5-4.5-5.9-6.1c-2.1-1.5-4.6-2.4-7.1-2.8C279.2,13.6,278.4,13.5,277.6,13.5z M329.9,514.2L329.9,514.2L329.9,514.2
							z M538.8,398.7c0.3,0.6,0.6,1.2,0.7,1.9C539.4,400,539.1,399.3,538.8,398.7L538.8,398.7z M277.6,12.5c0.9,0,1.8,0.1,2.6,0.2
							c2.7,0.4,5.3,1.5,7.5,3c2.5,1.7,4.6,3.9,6.2,6.4l241.5,371.2L294.1,21.6c-1.6-2.6-3.8-4.8-6.3-6.5c-2.3-1.5-4.9-2.6-7.6-3
							c-2.6-0.4-5.4-0.2-7.9,0.6c-2.7,0.9-5.2,2.4-7.3,4.4L38.9,236.4c-1.3,1.3-2.3,2.9-2.8,4.7c-0.5,1.9-0.6,3.8-0.3,5.7
							c0.2,1,0.4,2.1,0.8,3.1c-0.3-0.9-0.5-1.8-0.7-2.8c-0.3-1.9-0.2-3.9,0.3-5.8c0.5-1.8,1.5-3.5,2.9-4.8L265.2,17.7
							c2-2,4.4-3.5,7.1-4.4C274,12.8,275.8,12.5,277.6,12.5z M323.3,514.3c-0.5,0-1,0-1.5-0.1c-1.1-0.1-2.2-0.4-3.3-0.8
							c-1-0.4-1.9-1-2.7-1.7L44.7,256.4c-1.3-1.2-2.4-2.6-3.3-4.2c-0.8-1.4-1.3-3-1.6-4.6c-0.2-1.5-0.2-3,0.2-4.4
							c0.4-1.4,1.2-2.7,2.2-3.7l226-217.3l0.3,0.4l-0.3-0.4c1.5-1.5,3.4-2.6,5.4-3.3c1.9-0.6,4-0.8,6-0.5c2,0.3,4,1.1,5.7,2.3
							c1.9,1.3,3.5,2.9,4.7,4.8l245.3,374.2c0.6,1,1,2.1,1,3.3c0,1.2-0.2,2.3-0.7,3.4c-0.6,1.2-1.3,2.2-2.2,3.1
							c-1,1-2.2,1.8-3.5,2.5L328.5,513.1c-1,0.5-2.1,0.8-3.3,1C324.6,514.2,323.9,514.3,323.3,514.3z M277.7,21
							c-1.1,0-2.2,0.2-3.3,0.5c-1.7,0.6-3.3,1.5-4.6,2.8l-226,216.8c-0.8,0.8-1.5,1.8-1.8,2.9c-0.3,1.2-0.4,2.4-0.2,3.6
							c0.2,1.4,0.7,2.7,1.3,3.9c0.7,1.3,1.7,2.6,2.8,3.6l271.1,255.5c0.6,0.6,1.4,1.1,2.2,1.4c0.9,0.4,1.8,0.6,2.7,0.7
							c1,0.1,1.9,0.1,2.9-0.1c0.9-0.1,1.8-0.4,2.7-0.9l0.2,0.4l-0.2-0.4L529,410.5c1.1-0.5,2.1-1.2,3-2.1c0.8-0.7,1.4-1.6,1.8-2.5
							c0.4-0.8,0.6-1.7,0.6-2.7c0-0.9-0.3-1.7-0.8-2.5L288.2,27.1c-1-1.6-2.4-3-4-4.1c-1.4-1-3.1-1.6-4.8-1.9
							C278.9,21,278.3,21,277.7,21z M277.7,20c0.6,0,1.2,0,1.8,0.1c1.9,0.3,3.6,1,5.2,2.1c1.7,1.2,3.2,2.7,4.3,4.4l238.8,363.6
							l-238.6-364c-1.2-1.8-2.7-3.3-4.4-4.5c-1.6-1.1-3.4-1.8-5.3-2.1c-1.8-0.3-3.7-0.1-5.5,0.4c-1.9,0.6-3.6,1.7-5,3L43,240.3
							c-0.9,0.9-1.6,2-2,3.2c-0.4,1.3-0.4,2.7-0.2,4c0.1,0.8,0.3,1.5,0.6,2.3c-0.2-0.7-0.4-1.3-0.5-2c-0.2-1.3-0.1-2.7,0.2-4
							c0.4-1.3,1-2.4,2-3.4l226-216.8c1.4-1.4,3.1-2.4,5-3C275.2,20.2,276.5,20,277.7,20L277.7,20z"/>
					</g>
				</g>
			</g>
			<g class="st2">
				<path class="st3" d="M1319.8,1222.2l-0.5-0.1l-157.8-36.6l57.2-217.5l144.4,28.4l-0.1,0.5L1319.8,1222.2z M1162.7,1184.8
					L1319,1221l43-223.8l-142.5-28.1L1162.7,1184.8z"/>
				<g>
					<defs>
						<path id="SVGID_3_" d="M1319.8,1222.2l-0.5-0.1l-157.8-36.6l57.2-217.5l144.4,28.4l-0.1,0.5L1319.8,1222.2z M1162.7,1184.8
							L1319,1221l43-223.8l-142.5-28.1L1162.7,1184.8z"/>
					</defs>
					<clipPath id="SVGID_4_">
						<use xlink:href="#SVGID_3_"  style="overflow:visible;"/>
					</clipPath>
					<g class="st6">
						<path class="st5" d="M1354.4,997.3L1226,972c-0.7-0.1-1.5-0.1-2.2,0c-0.7,0.1-1.4,0.4-2,0.7c-0.6,0.4-1.1,0.8-1.6,1.4
							c-0.4,0.6-0.8,1.2-0.9,1.9l-52.7,201.3c-0.2,0.8-0.3,1.6-0.2,2.5c0.1,0.8,0.4,1.5,0.8,2.2c0.4,0.7,0.9,1.3,1.5,1.7
							c0.6,0.5,1.4,0.8,2.2,1l140.5,32.5c0.8,0.2,1.7,0.2,2.5,0c0.8-0.1,1.5-0.5,2.2-0.9c0.7-0.4,1.3-1,1.7-1.7
							c0.5-0.7,0.8-1.5,1-2.3l40.2-208.7c0.2-0.7,0.2-1.4,0-2.1c-0.2-0.7-0.5-1.3-0.9-1.9c-0.4-0.6-1-1.1-1.6-1.5
							C1355.9,997.7,1355.2,997.5,1354.4,997.3 M1171.2,1183.6c-0.6-0.1-1.3-0.4-1.8-0.8c-0.5-0.4-0.9-0.9-1.3-1.4
							c-0.3-0.6-0.5-1.2-0.6-1.8c-0.1-0.7,0-1.3,0.1-2l52.6-201.4c0.2-0.6,0.4-1.1,0.8-1.5c0.4-0.5,0.8-0.8,1.3-1.1
							c1-0.6,2.3-0.8,3.4-0.6l128.5,25.3c0.6,0.1,1.2,0.4,1.7,0.7c0.5,0.3,0.9,0.7,1.3,1.2c0.3,0.5,0.6,1,0.7,1.6
							c0.1,0.6,0.1,1.2,0,1.8l-40.3,208.7c-0.1,0.7-0.4,1.3-0.8,1.9c-0.4,0.6-0.9,1-1.4,1.4c-0.6,0.4-1.2,0.6-1.8,0.8
							c-0.7,0.1-1.4,0.1-2.1-0.1L1171.2,1183.6 M1170.5,1186c-1.9-0.4-3.5-1.7-4.5-3.3c-0.5-0.8-0.8-1.8-0.9-2.7c-0.1-1-0.1-2,0.2-3
							l52.8-201.2c0.2-0.8,0.6-1.6,1.1-2.3c0.5-0.7,1.2-1.2,1.9-1.7c1.5-0.9,3.3-1.2,5.1-0.9l128.3,25.3c1.8,0.3,3.4,1.3,4.4,2.8
							c0.5,0.7,0.9,1.5,1.1,2.3c0.2,0.8,0.2,1.7,0.1,2.6l-40.1,208.8c-0.2,1-0.6,2-1.2,2.8c-0.5,0.8-1.3,1.5-2.1,2.1
							c-1.7,1.1-3.8,1.5-5.7,1L1170.5,1186 M1354.8,995.3L1226.5,970c-1-0.2-2-0.2-3,0c-1,0.2-1.9,0.5-2.8,1
							c-0.8,0.5-1.6,1.1-2.2,1.9c-0.6,0.8-1,1.6-1.3,2.6l-52.9,201.2c-0.3,1.1-0.4,2.3-0.2,3.4c0.1,1.1,0.5,2.1,1,3.1
							c0.5,0.9,1.3,1.8,2.1,2.4c0.9,0.7,1.9,1.1,3,1.4l140.7,32.6c1.1,0.3,2.3,0.3,3.4,0.1c1.1-0.2,2.1-0.6,3.1-1.3
							c0.9-0.6,1.7-1.4,2.4-2.4c0.7-1,1.1-2.1,1.3-3.2l40.1-208.8c0.2-1,0.2-2-0.1-2.9c-0.2-0.9-0.6-1.8-1.2-2.6
							c-0.6-0.8-1.3-1.5-2.2-2C1356.8,995.9,1355.8,995.5,1354.8,995.3"/>
						<path class="st3" d="M1312.8,1220.4c-0.7,0-1.3-0.1-2-0.2l-140.7-32.6c-1.2-0.3-2.2-0.8-3.2-1.5c-1.8-1.4-3-3.5-3.3-5.8
							c-0.2-1.2-0.1-2.4,0.2-3.6l52.9-201.2c0.3-1,0.7-2,1.4-2.8c0.6-0.8,1.4-1.5,2.3-2c0.9-0.5,1.9-0.9,2.9-1.1
							c1.1-0.2,2.2-0.2,3.2,0l128.3,25.3c1.1,0.2,2.1,0.6,3.1,1.2c0.9,0.6,1.7,1.3,2.3,2.2c0.6,0.8,1.1,1.8,1.3,2.8
							c0.3,1,0.3,2.1,0.1,3.2l-40.1,208.9c-0.2,1.2-0.7,2.4-1.4,3.4c-0.7,1-1.5,1.8-2.5,2.5
							C1316.3,1219.9,1314.6,1220.4,1312.8,1220.4L1312.8,1220.4z M1176.6,1132l-11.8,44.9c-0.3,1-0.4,2.1-0.2,3.2
							c0.1,1,0.5,2,1,2.9c0.5,0.9,1.2,1.6,2,2.3c0.8,0.6,1.8,1.1,2.8,1.3l140.6,32.6c2.1,0.5,4.3,0.1,6.1-1.1
							c0.9-0.6,1.6-1.3,2.2-2.2c0.6-0.9,1-2,1.2-3.1l32.8-171.1l-32.9,171.1c-0.2,1.1-0.6,2.1-1.2,3c-0.6,0.9-1.3,1.6-2.2,2.2
							c-0.9,0.6-1.8,1-2.9,1.2c-1.1,0.2-2.2,0.2-3.2-0.1l-140.6-32.6l0,0c-1-0.2-2-0.7-2.8-1.3c-0.8-0.6-1.5-1.4-2-2.3
							c-0.5-0.9-0.9-1.9-1-2.9c-0.1-1.1-0.1-2.1,0.2-3.2L1176.6,1132z M1224.9,971.3c-1.2,0-2.4,0.3-3.4,0.9
							c-0.7,0.4-1.3,0.9-1.8,1.5c-0.5,0.6-0.8,1.3-1.1,2.1l-52.8,201.2c-0.2,0.9-0.3,1.9-0.2,2.8c0.1,0.9,0.4,1.7,0.8,2.5
							c0.4,0.8,1,1.5,1.7,2c0.7,0.5,1.5,0.9,2.4,1.1l0,0l140.6,32.6c0.9,0.2,1.9,0.2,2.8,0.1c0.9-0.2,1.7-0.5,2.5-1
							c0.8-0.5,1.4-1.2,1.9-1.9c0.5-0.8,0.9-1.7,1.1-2.7l40.1-208.8c0.2-0.8,0.1-1.6-0.1-2.4c-0.2-0.8-0.5-1.5-1-2.1
							c-0.5-0.7-1.1-1.2-1.8-1.7c-0.7-0.5-1.5-0.8-2.4-0.9l-128.3-25.3C1225.7,971.3,1225.3,971.3,1224.9,971.3L1224.9,971.3z
							 M1312.8,1217.9c-0.5,0-1-0.1-1.5-0.2l-140.5-32.5c-0.8-0.2-1.6-0.6-2.3-1.1c-0.7-0.5-1.2-1.2-1.7-1.9
							c-0.4-0.7-0.7-1.6-0.8-2.4c-0.1-0.9-0.1-1.8,0.2-2.7l52.7-201.3c0.2-0.7,0.5-1.4,1-2c0.5-0.6,1-1.1,1.7-1.5
							c1.4-0.8,3-1.1,4.5-0.8l128.4,25.3c0.8,0.2,1.6,0.5,2.3,0.9c0.7,0.4,1.2,1,1.7,1.6c0.5,0.6,0.8,1.3,1,2.1
							c0.2,0.8,0.2,1.5,0,2.3l-40.2,208.7c-0.2,0.9-0.5,1.8-1,2.5c-0.5,0.7-1.1,1.3-1.8,1.8c-0.7,0.5-1.5,0.8-2.4,1
							C1313.6,1217.8,1313.2,1217.9,1312.8,1217.9L1312.8,1217.9z M1179.3,1130.6l-12.2,46.8c-0.2,0.7-0.2,1.5-0.1,2.3
							c0.1,0.7,0.3,1.4,0.7,2c0.3,0.6,0.8,1.2,1.4,1.6c0.6,0.4,1.3,0.8,2,0.9l140.5,32.5c0.7,0.2,1.5,0.2,2.3,0
							c0.7-0.1,1.4-0.4,2-0.8c0.6-0.4,1.1-0.9,1.6-1.6c0.4-0.6,0.7-1.4,0.9-2.2l28.7-149l-28.8,149c-0.1,0.8-0.4,1.5-0.9,2.1
							c-0.4,0.6-0.9,1.1-1.6,1.5c-1.3,0.8-2.8,1.1-4.3,0.8l-140.5-32.5c-0.7-0.2-1.4-0.5-2-0.9c-1.1-0.9-1.9-2.2-2.1-3.6
							c-0.1-0.7-0.1-1.5,0.1-2.2L1179.3,1130.6z M1224.8,973.3c-0.3,0-0.5,0-0.8,0.1c-0.5,0.1-1,0.3-1.5,0.5c-0.4,0.3-0.8,0.6-1.2,1
							c-0.3,0.4-0.6,0.9-0.7,1.4l-52.6,201.4c-0.2,0.6-0.2,1.2-0.1,1.8c0.1,0.6,0.3,1.1,0.6,1.7c0.3,0.5,0.7,0.9,1.1,1.3
							c0.5,0.4,1,0.6,1.6,0.8l140.5,32.5c1.2,0.3,2.5,0.1,3.5-0.6c1-0.7,1.8-1.8,2-3l40.3-208.7c0.1-0.5,0.1-1,0-1.5
							c-0.1-0.5-0.3-1-0.7-1.4c-0.3-0.4-0.7-0.8-1.2-1.1c-0.5-0.3-1-0.5-1.6-0.6l-128.5-25.3
							C1225.4,973.3,1225.1,973.3,1224.8,973.3L1224.8,973.3z"/>
					</g>
				</g>
			</g>
			<g class="st2">
				<path class="st3" d="M1418,407l-111.2-102.5l89.1-108.4l77,81.4l-0.1,0.3L1418,407z M1308.2,304.4l109.4,100.8l54-127.4
					l-75.7-80.1L1308.2,304.4z"/>
				<g>
					<defs>
						<path id="SVGID_5_" d="M1418,407l-111.2-102.5l89.1-108.4l77,81.4l-0.1,0.3L1418,407z M1308.2,304.4l109.4,100.8l54-127.4
							l-75.7-80.1L1308.2,304.4z"/>
					</defs>
					<clipPath id="SVGID_6_">
						<use xlink:href="#SVGID_5_"  style="overflow:visible;"/>
					</clipPath>
					<g class="st7">
						<path class="st5" d="M1468,274.6l-68.4-72.3c-0.4-0.4-0.8-0.8-1.3-1.1c-0.4-0.3-0.9-0.5-1.3-0.6c-0.4-0.1-0.8-0.1-1.2-0.1
							c-0.3,0.1-0.7,0.3-0.9,0.5l-81.3,99.8c-0.4,0.5-0.7,1.1-0.8,1.8c-0.1,0.7-0.1,1.4,0,2.1c0.1,0.8,0.4,1.5,0.8,2.2
							c0.4,0.7,0.9,1.4,1.5,1.9l98.1,90.5c0.5,0.5,1.1,0.8,1.7,1.1c0.5,0.2,1.1,0.3,1.7,0.2c0.5-0.1,1-0.3,1.4-0.6
							c0.4-0.4,0.8-0.9,1-1.4l50.9-118.6c0.2-0.4,0.2-0.8,0.2-1.2c0-0.5-0.1-1-0.3-1.4c-0.2-0.5-0.4-1-0.7-1.5
							C1468.7,275.4,1468.4,275,1468,274.6 M1315.7,308.1c-0.5-0.5-0.9-1-1.2-1.5c-0.3-0.5-0.5-1.1-0.6-1.7c-0.1-0.6-0.1-1.1,0-1.7
							c0.1-0.5,0.3-1,0.7-1.4l81-100c0.2-0.2,0.4-0.4,0.7-0.4c0.3-0.1,0.7,0,1,0.1c0.4,0.1,0.7,0.3,1.1,0.5c0.4,0.3,0.8,0.6,1.1,0.9
							l68.5,72.4c0.3,0.3,0.6,0.7,0.8,1.1c0.2,0.4,0.4,0.8,0.5,1.2c0.1,0.4,0.2,0.8,0.2,1.1c0,0.3,0,0.6-0.2,1l-51,118.5
							c-0.2,0.4-0.5,0.8-0.8,1.1c-0.3,0.3-0.7,0.4-1.2,0.5c-0.4,0.1-0.9,0-1.3-0.2c-0.5-0.2-1-0.5-1.3-0.9L1315.7,308.1
							 M1314.6,309.6c-0.7-0.7-1.3-1.4-1.8-2.3c-0.4-0.8-0.8-1.7-0.9-2.6c-0.2-0.8-0.2-1.7,0-2.5c0.2-0.8,0.5-1.5,1-2.1l81.5-99.7
							c0.3-0.3,0.6-0.6,1.1-0.6c0.5-0.1,1-0.1,1.4,0.1c0.6,0.2,1.1,0.4,1.6,0.7c0.6,0.4,1.1,0.8,1.6,1.3l68.3,72.2
							c0.9,1,1.6,2.1,2,3.3c0.2,0.5,0.3,1.1,0.3,1.7c0,0.5,0,1-0.2,1.4l-50.6,118.7c-0.3,0.7-0.7,1.2-1.2,1.7
							c-0.5,0.4-1.1,0.7-1.7,0.8c-0.7,0.1-1.4,0-2-0.2c-0.7-0.3-1.4-0.7-2-1.3L1314.6,309.6 M1468.6,273.6l-68.2-72.1
							c-0.5-0.6-1.2-1.1-1.8-1.5c-0.6-0.4-1.2-0.7-1.9-0.9c-0.5-0.2-1.1-0.2-1.7-0.1c-0.5,0.1-0.9,0.3-1.2,0.7l-81.8,99.5
							c-0.6,0.7-1,1.6-1.2,2.5c-0.2,1-0.2,2,0,2.9c0.2,1.1,0.6,2.1,1.1,3c0.6,1,1.3,1.9,2.1,2.7l98.5,90.7c0.7,0.6,1.5,1.1,2.3,1.5
							c0.7,0.3,1.5,0.4,2.3,0.3c0.7-0.1,1.4-0.4,2-0.9c0.6-0.5,1.1-1.2,1.4-2l50.4-118.8c0.2-0.5,0.3-1.1,0.3-1.7
							c0-0.7-0.2-1.4-0.4-2c-0.2-0.7-0.5-1.4-0.9-2C1469.6,274.8,1469.1,274.2,1468.6,273.6"/>
						<path class="st3" d="M1416.4,403.4c-0.6,0-1.3-0.1-1.9-0.4c-0.9-0.4-1.8-0.9-2.5-1.6l-98.5-90.7c-0.9-0.8-1.6-1.8-2.2-2.8
							c-0.6-1-0.9-2-1.2-3.1c-0.2-1-0.2-2.1,0-3.1c0.2-1,0.6-1.9,1.3-2.7l81.8-99.5c0.4-0.5,0.9-0.8,1.5-0.9
							c0.6-0.1,1.3-0.1,1.9,0.1c0.7,0.2,1.4,0.5,2,0.9c0.7,0.5,1.4,1,1.9,1.6l68.2,72.1c0.6,0.6,1,1.2,1.5,2c0.4,0.7,0.7,1.4,1,2.1
							c0.2,0.7,0.4,1.4,0.4,2.1c0,0.6-0.1,1.3-0.3,1.9l-50.4,118.8c-0.3,0.8-0.9,1.6-1.6,2.2c-0.6,0.5-1.4,0.9-2.2,1
							C1416.9,403.4,1416.7,403.4,1416.4,403.4z M1414.1,401.7c0.3,0.1,0.5,0.3,0.8,0.4c0.7,0.3,1.4,0.3,2.1,0.2
							c0.6-0.1,1.3-0.4,1.8-0.8c0.6-0.5,1-1.1,1.3-1.7c-0.3,0.6-0.7,1.1-1.2,1.5c-0.6,0.5-1.3,0.8-2,0.9c-0.8,0.1-1.5,0-2.2-0.3
							L1414.1,401.7z M1415,401c0.5,0.2,1.1,0.3,1.7,0.2c0.5-0.1,1.1-0.3,1.5-0.6c0.3-0.3,0.6-0.6,0.8-0.9c-0.2,0.3-0.4,0.5-0.7,0.8
							c-0.5,0.4-1.1,0.7-1.7,0.7C1416,401.2,1415.5,401.1,1415,401L1415,401z M1414.5,399.7c0.2,0.1,0.4,0.2,0.6,0.2
							c0.5,0.2,0.9,0.2,1.4,0.2c0.4-0.1,0.9-0.2,1.2-0.5c0.4-0.3,0.7-0.8,0.9-1.2l0,0c-0.2,0.4-0.5,0.8-0.8,1
							c-0.4,0.3-0.9,0.5-1.4,0.6c-0.5,0.1-1.1,0-1.6-0.2L1414.5,399.7z M1396.6,201.7c-0.1,0-0.2,0-0.2,0c-0.2,0-0.3,0.1-0.4,0.3
							l-81,100c-0.3,0.4-0.5,0.8-0.6,1.2c-0.1,0.5-0.1,1,0,1.5c0.1,0.6,0.3,1.1,0.6,1.6c0.3,0.5,0.7,1,1.1,1.4l97.8,90.4
							c0.3,0.3,0.7,0.6,1.2,0.8c0.3,0.1,0.7,0.2,1.1,0.1c0.3,0,0.7-0.2,0.9-0.4c0.3-0.3,0.5-0.6,0.7-0.9l51-118.4
							c0.1-0.2,0.1-0.5,0.1-0.8c0-0.3-0.1-0.7-0.2-1c-0.1-0.4-0.3-0.7-0.5-1.1c-0.2-0.4-0.5-0.7-0.7-1L1399,203
							c-0.3-0.3-0.6-0.6-1-0.8c-0.3-0.2-0.6-0.3-0.9-0.4C1396.9,201.7,1396.7,201.7,1396.6,201.7L1396.6,201.7z M1368.1,231.6
							l-55.8,67.9c-0.5,0.7-0.9,1.4-1.1,2.3c-0.2,0.9-0.2,1.8,0,2.7c0.1,0.7,0.3,1.4,0.6,2c-0.2-0.6-0.4-1.2-0.5-1.8
							c-0.2-0.9-0.2-1.8,0-2.7c0.2-0.9,0.5-1.7,1.1-2.3L1368.1,231.6z M1368.7,233.9l-54.7,67.3c-0.4,0.5-0.6,1-0.7,1.6
							c-0.1,0.6-0.1,1.3,0,1.9c0.1,0.4,0.2,0.7,0.3,1.1c-0.1-0.3-0.2-0.6-0.2-0.9c-0.1-0.6-0.1-1.3,0-1.9c0.1-0.6,0.4-1.2,0.8-1.6
							L1368.7,233.9z M1356.5,247.3l-43.4,53c-0.4,0.6-0.8,1.2-0.9,1.9c-0.1,0.7-0.1,1.4,0,2.1c-0.1-0.6-0.1-1.2,0.1-1.9
							c0.1-0.7,0.5-1.4,0.9-2L1356.5,247.3z"/>
					</g>
				</g>
			</g>
			<g class="st2">
				<path class="st3" d="M1947.9,1188.4l-0.4-0.2L1668.1,1061l0.2-0.5l226.2-470.4l0.5,0.3l307.8,193.7l-0.3,0.4L1947.9,1188.4z
					 M1669.5,1060.6l278.1,126.6l253.8-402.7l-306.5-192.9L1669.5,1060.6z"/>
				<g>
					<defs>
						<path id="SVGID_7_" d="M1947.9,1188.4l-0.4-0.2L1668.1,1061l0.2-0.5l226.2-470.4l0.5,0.3l307.8,193.7l-0.3,0.4L1947.9,1188.4z
							 M1669.5,1060.6l278.1,126.6l253.8-402.7l-306.5-192.9L1669.5,1060.6z"/>
					</defs>
					<clipPath id="SVGID_8_">
						<use xlink:href="#SVGID_7_"  style="overflow:visible;"/>
					</clipPath>
					<g class="st8">
						<path class="st5" d="M2184.7,780.1l-275.4-172.7c-1.6-1-3.4-1.7-5.3-1.9c-1.8-0.2-3.6-0.1-5.3,0.5c-1.7,0.5-3.3,1.4-4.7,2.6
							c-1.5,1.3-2.7,2.9-3.5,4.6l-210.7,436.2c-0.6,1.3-0.9,2.7-0.9,4.1c0,1.4,0.3,2.8,0.9,4.1c0.6,1.4,1.4,2.6,2.5,3.6
							c1.1,1.1,2.4,2,3.9,2.7l250.4,114.4c1.3,0.6,2.7,0.9,4.1,1c1.4,0.1,2.8-0.1,4.1-0.4c1.3-0.4,2.6-1,3.7-1.8
							c1.1-0.8,2.1-1.8,2.8-2.9l236.4-376.3c1-1.5,1.6-3.2,2-5c0.3-1.6,0.4-3.3,0.1-5c-0.3-1.6-0.8-3.1-1.7-4.5
							C2187.3,782.1,2186.1,780.9,2184.7,780.1 M1686.6,1063.1c-1.3-0.6-2.5-1.4-3.6-2.5c-1-1-1.7-2.1-2.3-3.3
							c-0.5-1.2-0.8-2.5-0.8-3.8c0-1.3,0.3-2.6,0.9-3.8l210.8-436c0.8-1.6,1.9-3.1,3.2-4.2c1.3-1.1,2.7-1.9,4.3-2.4
							c1.6-0.5,3.2-0.6,4.8-0.4c1.7,0.2,3.4,0.8,4.8,1.8L2184.1,781c1.3,0.8,2.3,1.9,3.1,3.1c0.8,1.3,1.3,2.7,1.6,4.1
							c0.2,1.5,0.2,3.1-0.1,4.6c-0.3,1.6-1,3.1-1.8,4.5l-236.3,376.5c-0.7,1.1-1.5,2-2.6,2.7c-1,0.7-2.2,1.3-3.4,1.6
							c-1.2,0.3-2.5,0.5-3.8,0.4c-1.3-0.1-2.6-0.4-3.8-0.9L1686.6,1063.1 M1684.7,1067.1c-1.9-0.9-3.7-2.1-5.2-3.6
							c-1.4-1.4-2.5-3-3.3-4.8c-0.8-1.7-1.2-3.6-1.2-5.5c0-1.9,0.4-3.8,1.2-5.5l210.3-437c1.1-2.3,2.7-4.4,4.6-6.2
							c1.8-1.6,3.9-2.8,6.3-3.5c2.3-0.7,4.7-0.9,7-0.6c2.5,0.3,4.9,1.2,7,2.5l275.7,173.3c1.8,1.2,3.4,2.7,4.5,4.5
							c1.1,1.8,1.9,3.9,2.2,6c0.4,2.2,0.3,4.5-0.1,6.7c-0.5,2.3-1.4,4.6-2.7,6.6l-236.6,375.7c-1,1.5-2.2,2.8-3.7,3.9
							c-1.5,1-3.1,1.8-4.9,2.3c-1.8,0.5-3.6,0.7-5.5,0.6c-1.9-0.1-3.7-0.6-5.4-1.3L1684.7,1067.1 M2187.7,775.3L1912,601.8
							c-2.3-1.4-4.8-2.4-7.4-2.7c-2.5-0.3-5.1-0.1-7.5,0.7c-2.5,0.8-4.7,2-6.7,3.8c-2.1,1.8-3.7,4.1-4.9,6.5l-210.2,437.2
							c-0.9,1.8-1.3,3.8-1.3,5.8c0,2,0.5,4,1.3,5.8c0.8,1.9,2,3.7,3.5,5.1c1.6,1.6,3.5,2.9,5.5,3.8l250.2,113.9
							c1.8,0.8,3.8,1.3,5.7,1.4c2,0.1,3.9-0.1,5.8-0.6c1.9-0.5,3.6-1.3,5.2-2.5c1.6-1.1,2.9-2.5,3.9-4.1l236.7-375.5
							c1.4-2.1,2.3-4.5,2.8-7c0.5-2.3,0.5-4.7,0.2-7.1c-0.4-2.3-1.2-4.4-2.4-6.4C2191.3,778.1,2189.6,776.5,2187.7,775.3"/>
						<path class="st3" d="M1941.3,1183.7h-1.1c-2-0.1-4.1-0.6-5.9-1.5l-250.2-113.9c-2.1-0.9-4-2.3-5.6-3.9
							c-1.5-1.5-2.8-3.3-3.6-5.3c-0.8-1.9-1.3-3.9-1.3-6c0-2.1,0.5-4.2,1.4-6.1l210.2-437.2c1.2-2.6,2.9-4.8,5-6.7
							c2-1.7,4.3-3.1,6.8-3.8c2.5-0.8,5.1-1,7.7-0.7c2.7,0.4,5.3,1.3,7.7,2.8L2188,774.9c2,1.3,3.7,3,5,5c1.3,2,2.1,4.2,2.4,6.6
							c0.4,2.4,0.3,4.9-0.2,7.3c-0.5,2.5-1.5,4.9-2.9,7.1l-236.7,375.5c-1.1,1.7-2.4,3.1-4.1,4.3c-1.6,1.1-3.4,2-5.4,2.5
							C1944.7,1183.5,1943,1183.8,1941.3,1183.7z M1684.9,1066.6l250.3,114c1.7,0.8,3.4,1.2,5.2,1.3c1.8,0.1,3.6-0.1,5.3-0.6
							c1.7-0.5,3.3-1.2,4.8-2.2c1.4-1,2.6-2.3,3.6-3.8l236.6-375.7c1.2-2,2.1-4.1,2.6-6.4c0.4-2.1,0.5-4.3,0.1-6.5
							c-0.3-2.1-1.1-4-2.2-5.8c-1.1-1.8-2.6-3.3-4.4-4.4l-275.6-173.3c-2.1-1.3-4.4-2.2-6.8-2.5c-2.3-0.3-4.6-0.1-6.8,0.6
							c-2.2,0.7-4.3,1.9-6.1,3.4c-1.9,1.7-3.4,3.7-4.5,6l-210.3,437c-0.8,1.6-1.2,3.5-1.2,5.3c0,1.8,0.4,3.6,1.2,5.3
							c0.8,1.7,1.9,3.3,3.2,4.7C1681.3,1064.6,1683,1065.8,1684.9,1066.6L1684.9,1066.6z M1902.3,599.5c-1.7,0-3.4,0.3-5.1,0.8
							c-2.4,0.7-4.6,2-6.5,3.6c-2,1.8-3.7,4-4.8,6.4l-210.2,437.2c-0.4,0.8-0.7,1.6-0.9,2.5c0.2-0.9,0.5-1.7,0.9-2.5l210.3-437
							c1.1-2.4,2.8-4.6,4.8-6.3c1.9-1.6,4.1-2.9,6.4-3.6c2.3-0.7,4.8-1,7.3-0.6c2.6,0.3,5,1.2,7.2,2.6l275.6,173.3
							c1.9,1.2,3.5,2.8,4.7,4.7c1.2,1.9,2,4,2.3,6.2c0.4,2.3,0.3,4.6-0.2,6.8v0v-0.1c0.5-2.3,0.5-4.6,0.2-6.9
							c-0.3-2.2-1.1-4.3-2.3-6.2c-1.2-1.9-2.8-3.5-4.6-4.7l-275.6-173.5c-2.2-1.4-4.7-2.3-7.2-2.6
							C1903.8,599.5,1903,599.5,1902.3,599.5L1902.3,599.5z M1941.5,1179.9c-0.3,0-0.6,0-0.8,0c-1.5-0.1-2.9-0.4-4.3-1L1686,1064.4
							c-1.5-0.7-2.8-1.6-4-2.8c-1.1-1.1-2-2.4-2.6-3.8c-0.6-1.4-0.9-2.8-0.9-4.3c0-1.5,0.3-3,1-4.4L1890.1,613
							c0.9-1.8,2.1-3.5,3.6-4.8c1.4-1.2,3.1-2.2,4.9-2.8c1.8-0.6,3.7-0.7,5.5-0.5c1.9,0.3,3.8,0.9,5.5,2L2185,779.6
							c1.4,0.9,2.7,2.1,3.6,3.6c0.9,1.4,1.5,3,1.8,4.7c0.3,1.7,0.2,3.5-0.1,5.2c-0.4,1.8-1.1,3.6-2.1,5.1l-236.4,376.3
							c-0.8,1.2-1.8,2.2-2.9,3.1c-1.2,0.8-2.5,1.4-3.8,1.8C1943.9,1179.7,1942.7,1179.9,1941.5,1179.9L1941.5,1179.9z M1902.5,607.1
							c-1.1,0-2.2,0.2-3.2,0.5c-1.5,0.5-2.9,1.3-4.1,2.3c-1.3,1.1-2.4,2.5-3.2,4.1l-210.8,436c-0.5,1.1-0.8,2.3-0.8,3.6
							c0,1.2,0.3,2.5,0.8,3.6c0.5,1.2,1.3,2.3,2.2,3.2c1,1,2.1,1.8,3.4,2.4l250.5,114.5c1.1,0.5,2.3,0.8,3.6,0.9
							c1.2,0.1,2.4-0.1,3.6-0.4c1.2-0.3,2.3-0.8,3.2-1.5c1-0.7,1.8-1.6,2.4-2.6l236.3-376.5c0.8-1.3,1.4-2.8,1.8-4.4
							c0.3-1.5,0.3-3,0.1-4.4c-0.2-1.4-0.7-2.7-1.5-3.9c-0.8-1.2-1.8-2.2-3-3l-275.3-172.5c-1.4-0.9-3-1.5-4.6-1.7
							C1903.4,607.2,1903,607.1,1902.5,607.1L1902.5,607.1z M1902.5,605.8c-1.2,0-2.4,0.2-3.5,0.5c-1.7,0.5-3.2,1.4-4.5,2.5
							c-1.4,1.2-2.6,2.8-3.4,4.5l-210.7,436.2c-0.4,0.9-0.7,1.9-0.8,2.9c0.1-1,0.4-2,0.8-2.9l210.8-436c0.8-1.7,1.9-3.2,3.3-4.4
							c1.3-1.1,2.8-2,4.5-2.5c1.6-0.5,3.4-0.7,5.1-0.4c1.8,0.2,3.5,0.9,5,1.8l275.3,172.6c1.3,0.8,2.4,1.9,3.3,3.3
							c0.8,1.3,1.4,2.8,1.6,4.3c0.3,1.6,0.2,3.2-0.1,4.8c0,0.1-0.1,0.2-0.1,0.3c0-0.1,0.1-0.3,0.1-0.4c0.3-1.6,0.4-3.2,0.1-4.8
							c-0.2-1.5-0.8-3-1.6-4.3c-0.8-1.3-1.9-2.4-3.2-3.2l-275.4-172.7c-1.5-1-3.3-1.6-5.1-1.8C1903.5,605.9,1903,605.9,1902.5,605.8
							L1902.5,605.8z"/>
					</g>
				</g>
			</g>
			<g class="st2">
				<path class="st3" d="M480.6,1141.9l-0.1-0.5l-76.9-269.5l0.5-0.1l171.2-49.9l0.2,0.5l91.2,258L480.6,1141.9z M404.8,872.6
					l76.5,268l184.1-60.8l-90.8-256.6L404.8,872.6z"/>
				<g>
					<defs>
						<path id="SVGID_9_" d="M480.6,1141.9l-0.1-0.5l-76.9-269.5l0.5-0.1l171.2-49.9l0.2,0.5l91.2,258L480.6,1141.9z M404.8,872.6
							l76.5,268l184.1-60.8l-90.8-256.6L404.8,872.6z"/>
					</defs>
					<clipPath id="SVGID_10_">
						<use xlink:href="#SVGID_9_"  style="overflow:visible;"/>
					</clipPath>
					<g class="st9">
						<path class="st5" d="M566.9,827.4L414,872c-0.9,0.2-1.7,0.7-2.4,1.2c-0.7,0.5-1.3,1.2-1.7,1.9c-0.4,0.7-0.7,1.5-0.9,2.4
							c-0.1,0.9-0.1,1.7,0.2,2.5l71.6,249.9c0.3,1,0.7,1.9,1.4,2.7c0.6,0.8,1.3,1.4,2.2,1.8c1.7,1,3.8,1.1,5.6,0.5l165.5-54.6
							c0.9-0.3,1.7-0.8,2.4-1.4c0.7-0.6,1.2-1.4,1.6-2.2c0.4-0.9,0.6-1.8,0.7-2.7c0-1-0.1-2-0.4-2.9l-84.5-239.6
							c-0.3-0.8-0.7-1.5-1.3-2.2c-0.6-0.6-1.2-1.1-2-1.5C570.4,827.1,568.7,826.9,566.9,827.4 M489.7,1134c-0.8,0.3-1.7,0.4-2.5,0.3
							c-0.8-0.1-1.6-0.3-2.3-0.7c-0.7-0.4-1.4-0.9-1.9-1.6c-0.5-0.7-0.9-1.5-1.2-2.3l-71.6-249.9c-0.2-0.7-0.3-1.5-0.1-2.2
							c0.1-0.7,0.4-1.4,0.7-2c0.4-0.6,0.9-1.2,1.5-1.7c0.6-0.5,1.3-0.8,2.1-1l153-44.6c0.7-0.2,1.5-0.3,2.2-0.2
							c0.7,0.1,1.4,0.3,2.1,0.6c0.6,0.3,1.2,0.7,1.7,1.3c0.5,0.5,0.9,1.2,1.1,1.9l84.4,239.7c0.3,0.8,0.4,1.7,0.4,2.5
							c0,0.8-0.2,1.6-0.6,2.3c-0.3,0.7-0.8,1.4-1.4,1.9c-0.6,0.6-1.3,1-2.1,1.2L489.7,1134 M490.5,1136.9c-1.2,0.4-2.4,0.5-3.7,0.4
							c-2.4-0.2-4.6-1.5-6.1-3.4c-0.8-1-1.4-2.1-1.7-3.4l-71.4-250c-0.3-1-0.4-2.1-0.2-3.2c0.2-1.1,0.5-2.1,1.1-3
							c0.6-0.9,1.3-1.7,2.1-2.4c0.9-0.7,1.9-1.2,3-1.5l152.9-44.5c1.1-0.3,2.2-0.4,3.3-0.3c1.1,0.1,2.1,0.4,3.1,0.9
							c0.9,0.5,1.8,1.1,2.5,1.9c0.7,0.8,1.3,1.7,1.6,2.7l84.6,239.5c0.4,1.2,0.6,2.4,0.5,3.7c-0.1,1.2-0.3,2.3-0.8,3.4
							c-0.5,1.1-1.2,2-2,2.8c-0.9,0.8-1.9,1.4-3.1,1.8L490.5,1136.9 M566.1,825.1l-152.9,44.5c-1.2,0.4-2.4,0.9-3.4,1.7
							c-1,0.7-1.8,1.7-2.4,2.7c-0.6,1-1,2.1-1.2,3.3c-0.2,1.2-0.1,2.4,0.2,3.6l71.4,250.1c0.4,1.4,1,2.6,1.9,3.7
							c0.8,1,1.9,1.9,3.1,2.6c2.4,1.3,5.3,1.6,7.9,0.7l165.6-54.7c1.3-0.4,2.4-1.1,3.4-2c1-0.9,1.7-1.9,2.3-3.1
							c0.5-1.2,0.9-2.5,0.9-3.8c0.1-1.4-0.1-2.8-0.6-4.1l-84.7-239.5c-0.4-1.1-1-2.1-1.8-3c-0.8-0.9-1.7-1.6-2.8-2.1
							c-1.1-0.5-2.2-0.9-3.4-1C568.5,824.6,567.3,824.7,566.1,825.1"/>
						<path class="st3" d="M487.7,1139c-0.3,0-0.7,0-1,0c-1.4-0.1-2.8-0.6-4-1.2c-1.2-0.7-2.3-1.6-3.2-2.7c-0.9-1.2-1.6-2.5-2-3.9
							L406.1,881c-0.4-1.2-0.4-2.5-0.2-3.8c0.2-1.2,0.6-2.4,1.2-3.5c0.7-1.1,1.5-2.1,2.5-2.8c1-0.8,2.2-1.4,3.5-1.8L566,824.6
							c1.2-0.4,2.5-0.5,3.8-0.4c1.2,0.1,2.5,0.5,3.6,1c1.1,0.5,2.1,1.3,3,2.2c0.9,0.9,1.5,2,1.9,3.2l84.7,239.5
							c0.5,1.4,0.7,2.8,0.6,4.2c-0.1,1.4-0.4,2.7-1,4c-0.6,1.2-1.4,2.3-2.4,3.3c-1,1-2.3,1.7-3.6,2.1L491,1138.4
							C489.9,1138.8,488.8,1139,487.7,1139z M424.2,940.8l54.2,190c0.4,1.3,1,2.5,1.8,3.6c0.8,1,1.8,1.8,2.9,2.4
							c1.1,0.6,2.3,1,3.6,1.1c1.3,0.1,2.6,0,3.9-0.4l165.6-54.7c1.2-0.4,2.3-1,3.2-1.9c0.9-0.8,1.6-1.8,2.1-2.9
							c0.5-1.1,0.8-2.4,0.9-3.6c0.1-1.3-0.1-2.6-0.6-3.9l-16.7-47.1l16.7,47.1c0.4,1.2,0.6,2.5,0.6,3.8c-0.1,1.2-0.4,2.5-0.9,3.6
							c-0.5,1.1-1.2,2.2-2.2,3c-0.9,0.9-2,1.5-3.2,1.9l-165.6,54.7c-3.8,1.2-7.9,0-10.4-3.1c-0.8-1-1.5-2.2-1.8-3.5L424.2,940.8z
							 M568.8,826.1c-0.8,0-1.6,0.1-2.3,0.3l-152.9,44.5c-1,0.3-2,0.8-2.8,1.5c-0.8,0.6-1.5,1.4-2,2.3c-0.5,0.9-0.9,1.8-1,2.8
							c-0.2,1-0.1,2,0.2,3l71.4,250c0.3,1.2,0.9,2.2,1.6,3.2c0.7,0.9,1.6,1.6,2.6,2.2c2,1.1,4.5,1.3,6.7,0.6l165.6-54.7
							c1.1-0.3,2.1-0.9,2.9-1.7c0.8-0.7,1.5-1.6,1.9-2.6c0.5-1,0.7-2.1,0.8-3.2c0.1-1.2-0.1-2.4-0.5-3.5l-84.6-239.5
							c-0.3-0.9-0.9-1.8-1.5-2.5c-0.7-0.7-1.5-1.3-2.4-1.8c-0.9-0.4-1.9-0.7-2.9-0.8L568.8,826.1z M487.7,1135.9c-0.2,0-0.5,0-0.7,0
							c-1-0.1-2-0.4-2.9-0.9c-0.9-0.5-1.7-1.2-2.3-2c-0.7-0.8-1.2-1.8-1.5-2.8l-71.6-249.9c-0.3-0.9-0.3-1.8-0.2-2.8
							c0.1-0.9,0.4-1.8,0.9-2.5c0.5-0.8,1.1-1.5,1.8-2.1c0.8-0.6,1.6-1,2.6-1.3l152.9-44.6c1.8-0.5,3.7-0.3,5.4,0.5
							c0.8,0.4,1.5,0.9,2.2,1.6c0.6,0.7,1.1,1.5,1.4,2.3l84.5,239.7c0.4,1,0.5,2,0.5,3.1c0,1-0.3,2-0.7,2.9c-0.4,0.9-1,1.7-1.7,2.4
							c-0.8,0.7-1.7,1.2-2.6,1.5l-165.5,54.6C489.4,1135.8,488.6,1135.9,487.7,1135.9L487.7,1135.9z M420,915.8l61.3,214.1
							c0.3,0.9,0.7,1.8,1.3,2.5c1.1,1.4,2.8,2.3,4.6,2.5c0.9,0.1,1.8,0,2.7-0.3l165.5-54.6c0.8-0.3,1.6-0.7,2.3-1.3
							c0.6-0.6,1.1-1.3,1.5-2.1c0.4-0.8,0.6-1.7,0.6-2.5c0-0.9-0.1-1.8-0.4-2.7l-17.4-49.1l17.3,49.1c0.6,1.7,0.5,3.6-0.2,5.2
							c-0.4,0.8-0.9,1.5-1.5,2.1c-0.7,0.6-1.4,1-2.3,1.3l-165.5,54.6c-1.7,0.6-3.6,0.4-5.2-0.5c-0.8-0.4-1.4-1-2-1.7
							c-0.6-0.7-1-1.6-1.3-2.5L420,915.8z M569,828.5c-0.5,0-1,0.1-1.5,0.2l-153,44.6c-0.7,0.2-1.3,0.6-1.9,1
							c-0.5,0.4-1,0.9-1.3,1.5c-0.3,0.6-0.6,1.2-0.7,1.8c-0.1,0.7-0.1,1.4,0.1,2l71.6,249.9c0.2,0.8,0.6,1.5,1.1,2.1
							c0.5,0.6,1.1,1.1,1.7,1.4c0.7,0.4,1.4,0.6,2.1,0.7c0.8,0.1,1.6,0,2.3-0.3l165.4-54.6c0.7-0.2,1.4-0.6,1.9-1.1
							c0.5-0.5,1-1.1,1.3-1.7c0.3-0.7,0.5-1.4,0.5-2.2c0-0.8-0.1-1.6-0.3-2.3l-84.4-239.7c-0.2-0.6-0.6-1.2-1-1.7
							c-0.4-0.5-1-0.9-1.6-1.2c-0.6-0.3-1.3-0.5-1.9-0.5C569.3,828.5,569.1,828.5,569,828.5L569,828.5z"/>
					</g>
				</g>
			</g>
			<g class="st2">
				<path class="st3" d="M348.9,1458.1l-0.4-0.3L0,1213.4l189.1-51.1l0.1,0.1l296.1,114l-0.4,0.5L348.9,1458.1z M2.3,1213.8
					l346.4,242.9l135-179.8L189,1163.4L2.3,1213.8z"/>
				<g>
					<defs>
						<path id="SVGID_11_" d="M348.9,1458.1l-0.4-0.3L0,1213.4l189.1-51.1l0.1,0.1l296.1,114l-0.4,0.5L348.9,1458.1z M2.3,1213.8
							l346.4,242.9l135-179.8L189,1163.4L2.3,1213.8z"/>
					</defs>
					<clipPath id="SVGID_12_">
						<use xlink:href="#SVGID_11_"  style="overflow:visible;"/>
					</clipPath>
					<g class="st10">
						<path class="st5" d="M184,1165.5l-167.7,45.7c-1.1,0.3-2.2,0.7-3.3,1.2c-0.8,0.4-1.4,0.9-2,1.5c-0.4,0.4-0.6,1-0.6,1.6
							c0.1,0.6,0.5,1.1,1.1,1.5l318.9,220.6c2,1.4,4.2,2.5,6.6,3.2c2.2,0.7,4.5,1.1,6.8,1.1c2.1,0,4.1-0.4,6-1.2
							c1.7-0.7,3.3-1.8,4.4-3.3l121.7-157.1c0.4-0.5,0.5-1.2,0.3-1.8c-0.3-0.8-0.8-1.5-1.4-2.1c-0.8-0.8-1.8-1.5-2.8-2.1
							c-1.2-0.7-2.6-1.4-3.9-1.9l-274.3-106.3c-0.7-0.3-1.5-0.5-2.3-0.6c-0.9-0.2-1.7-0.3-2.6-0.3c-0.9-0.1-1.8-0.1-2.6,0
							C185.5,1165.2,184.7,1165.3,184,1165.5 M352.7,1436.4c-1,1.3-2.4,2.4-4,3c-1.7,0.7-3.5,1-5.4,1c-2.1,0-4.1-0.3-6-0.9
							c-2.1-0.7-4.1-1.7-5.9-2.9L12.5,1216.8c-0.5-0.3-0.9-0.8-1-1.3c0-0.5,0.1-1.1,0.5-1.4c0.5-0.6,1.1-1,1.8-1.3
							c0.9-0.5,1.9-0.8,2.9-1.1l167.7-45.8c0.7-0.2,1.4-0.3,2.1-0.3c0.8-0.1,1.6-0.1,2.4,0c0.8,0,1.6,0.1,2.4,0.3
							c0.7,0.1,1.4,0.3,2.1,0.6l274.5,106.5c1.2,0.5,2.4,1,3.5,1.7c0.9,0.5,1.7,1.2,2.5,1.9c0.6,0.5,1,1.2,1.2,1.9
							c0.2,0.6,0.1,1.2-0.3,1.7L352.7,1436.4 M359,1440.7c-1.5,1.9-3.5,3.5-5.8,4.4c-2.5,1-5.2,1.6-7.9,1.5c-3,0-6-0.5-8.9-1.4
							c-3.1-1-6-2.4-8.7-4.3l-319.2-223c-0.7-0.4-1.2-1.1-1.4-1.9c-0.1-0.8,0.2-1.5,0.8-2.1c0.8-0.8,1.6-1.5,2.6-1.9
							c1.4-0.7,2.8-1.2,4.3-1.6l167.6-45.4c1-0.3,2-0.4,3.1-0.5c1.1-0.1,2.3-0.1,3.4,0c1.1,0.1,2.3,0.2,3.4,0.4c1,0.2,2,0.5,3,0.8
							l273.7,105.6c1.8,0.7,3.5,1.5,5.1,2.5c1.3,0.8,2.6,1.7,3.7,2.8c0.8,0.8,1.4,1.7,1.8,2.8c0.3,0.8,0.1,1.7-0.4,2.4L359,1440.7
							 M182,1164.8L14.4,1210c-1.6,0.4-3.1,1-4.6,1.7c-1.1,0.5-2,1.2-2.8,2.1c-0.6,0.6-0.9,1.4-0.8,2.2c0.2,0.9,0.7,1.6,1.5,2.1
							L326.8,1442c2.9,2,6,3.6,9.4,4.7c3.1,1,6.4,1.5,9.6,1.5c2.9,0,5.8-0.6,8.5-1.7c2.5-1,4.6-2.7,6.2-4.8l119.8-159.6
							c0.6-0.8,0.7-1.7,0.4-2.6c-0.4-1.1-1.1-2.2-2-3c-1.2-1.2-2.5-2.2-3.9-3c-1.8-1-3.6-1.9-5.5-2.7l-273.5-105.4
							c-1-0.4-2.1-0.7-3.2-0.9c-1.2-0.2-2.4-0.4-3.7-0.4c-1.2-0.1-2.5-0.1-3.7,0C184.2,1164.3,183.1,1164.5,182,1164.8"/>
						<path class="st3" d="M345.6,1448.6c-3.2,0-6.5-0.5-9.5-1.5c-3.4-1.1-6.6-2.7-9.5-4.7L7.3,1218.5c-0.9-0.5-1.5-1.4-1.7-2.4
							c-0.1-1,0.3-1.9,0.9-2.6c0.9-0.9,1.9-1.7,3-2.2c1.5-0.7,3.1-1.3,4.7-1.8l167.6-45.2c1.1-0.3,2.3-0.5,3.4-0.6
							c1.3-0.1,2.5-0.1,3.8,0c1.3,0.1,2.5,0.2,3.7,0.4c1.1,0.2,2.2,0.5,3.3,0.9l273.5,105.4c1.9,0.7,3.8,1.6,5.6,2.7
							c1.5,0.9,2.8,1.9,4,3.1c1,0.9,1.7,2,2.1,3.2c0.4,1,0.2,2.2-0.5,3.1L361,1442c-1.7,2.2-3.9,3.9-6.4,4.9
							c-2.8,1.1-5.7,1.7-8.7,1.7L345.6,1448.6z M116,1293.5l211.1,148.1c2.8,2,6,3.5,9.2,4.6c3.1,1,6.2,1.5,9.5,1.5
							c2.9,0,5.7-0.5,8.4-1.6c2.4-1,4.4-2.6,6-4.6L480,1281.8c0.5-0.6,0.6-1.4,0.3-2.2c0-0.1-0.1-0.2-0.1-0.4
							c0.3,0.9,0.1,1.9-0.5,2.7l-120.2,159l-0.4-0.3l0.4,0.3c-1.6,2-3.6,3.6-6,4.6c-2.6,1.1-5.3,1.6-8.1,1.6c-3.1,0-6.1-0.5-9.1-1.4
							c-3.1-1-6.1-2.5-8.8-4.4L116,1293.5z M157.4,1172.3L15,1210.8c-1.4,0.4-2.8,0.9-4.2,1.6c-0.9,0.4-1.8,1.1-2.5,1.8
							c-0.4,0.4-0.7,1-0.7,1.7c0.1,0.7,0.6,1.2,1.2,1.6l319.2,223c2.6,1.8,5.5,3.3,8.6,4.2c2.8,0.9,5.8,1.4,8.7,1.4
							c2.7,0,5.3-0.5,7.7-1.5c2.2-0.9,4.1-2.4,5.6-4.2l120.3-158.9c0.4-0.6,0.5-1.3,0.3-2c-0.4-1-0.9-1.9-1.7-2.6
							c-1.1-1-2.3-2-3.5-2.7c-1.6-1-3.3-1.8-5-2.4l-241.2-93.1l240.6,93.3c1.4,0.5,2.7,1.2,4,1.9c1,0.6,2,1.4,2.9,2.2
							c0.7,0.6,1.2,1.5,1.5,2.3c0.3,0.8,0.1,1.6-0.4,2.3l-121.7,157.1c-1.2,1.5-2.8,2.7-4.6,3.5c-2,0.8-4.1,1.2-6.2,1.2
							c-2.3,0-4.7-0.4-6.9-1.1c-2.4-0.8-4.7-1.9-6.7-3.3L11.2,1217.4c-0.7-0.4-1.1-1-1.3-1.8c-0.1-0.7,0.2-1.5,0.7-2
							c0.6-0.7,1.3-1.2,2.1-1.6c1.1-0.5,2.2-1,3.4-1.3L157.4,1172.3z M134.9,1301.7l195.8,135.4c2,1.4,4.2,2.5,6.5,3.2
							c2.1,0.7,4.3,1,6.6,1c2,0,4-0.4,5.8-1.1c1.7-0.7,3.1-1.7,4.2-3.2l121.7-157c0.3-0.4,0.4-0.9,0.2-1.4c0-0.1-0.1-0.2-0.1-0.3
							c0.2,0.7,0,1.4-0.4,1.9l-122.1,156.5c-1.1,1.4-2.5,2.5-4.2,3.1c-1.8,0.7-3.7,1.1-5.6,1.1c-2.1,0-4.2-0.3-6.2-1
							c-2.2-0.7-4.2-1.7-6-3L134.9,1301.7z M188,1165.8c-0.5,0-0.9,0-1.4,0.1c-0.7,0.1-1.3,0.2-2,0.3l-167.8,45.8
							c-1,0.3-1.9,0.6-2.8,1.1c-0.6,0.3-1.2,0.7-1.6,1.2c-0.3,0.3-0.4,0.6-0.4,1c0.1,0.4,0.4,0.8,0.7,1l318.9,219.8
							c1.8,1.2,3.7,2.2,5.8,2.8c1.9,0.6,3.9,0.9,5.9,0.9c1.8,0,3.6-0.3,5.2-1c1.5-0.6,2.8-1.6,3.8-2.8l122.1-156.5
							c0.3-0.3,0.3-0.8,0.2-1.2c-0.2-0.7-0.6-1.2-1.1-1.7c-0.7-0.7-1.5-1.3-2.4-1.8c-1.1-0.7-2.2-1.2-3.4-1.7l-274.5-106.5
							c-0.6-0.2-1.3-0.4-2-0.5c-0.8-0.1-1.5-0.2-2.3-0.3L188,1165.8z M6.8,1215.1c-0.1,0.3-0.2,0.6-0.1,0.9c0,0.3,0.2,0.6,0.4,0.9
							c-0.1-0.3-0.2-0.6-0.3-0.9C6.7,1215.7,6.7,1215.4,6.8,1215.1z M11,1214.9c-0.1,0.2-0.1,0.4-0.1,0.6c0,0.2,0.1,0.4,0.2,0.5
							c-0.1-0.2-0.1-0.3-0.1-0.5C11,1215.3,11,1215.1,11,1214.9L11,1214.9z"/>
					</g>
				</g>
			</g>
			<g class="st2">
				<path class="st3" d="M264.3,879.8l-65.1-42l-0.1-0.1l-52.9-121.4l69.6,25.1l0.1,0.2L264.3,879.8z M200,837.1l62.4,40.3
					l-47.2-135.2l-67-24.2L200,837.1z"/>
				<g>
					<defs>
						<path id="SVGID_13_" d="M264.3,879.8l-65.1-42l-0.1-0.1l-52.9-121.4l69.6,25.1l0.1,0.2L264.3,879.8z M200,837.1l62.4,40.3
							l-47.2-135.2l-67-24.2L200,837.1z"/>
					</defs>
					<clipPath id="SVGID_14_">
						<use xlink:href="#SVGID_13_"  style="overflow:visible;"/>
					</clipPath>
					<g class="st11">
						<path class="st5" d="M211.7,741.8l-60.7-22.2c-0.2-0.1-0.5-0.1-0.7,0c-0.2,0.1-0.3,0.3-0.4,0.6c-0.1,0.3-0.1,0.7,0,1
							c0.1,0.5,0.3,1,0.5,1.4l48.5,111.7c0.2,0.4,0.4,0.8,0.6,1.1c0.3,0.4,0.5,0.8,0.8,1.1c0.3,0.3,0.6,0.7,0.9,1
							c0.3,0.3,0.6,0.5,0.9,0.7l56.8,36.6c0.3,0.2,0.7,0.4,1,0.5c0.2,0.1,0.5,0.1,0.7,0c0.2-0.1,0.3-0.3,0.3-0.5c0-0.3,0-0.7-0.2-1
							l-44.3-126.5c-0.2-0.6-0.5-1.2-0.9-1.8c-0.3-0.6-0.7-1.1-1.2-1.6c-0.4-0.5-0.9-0.9-1.4-1.3
							C212.6,742.3,212.2,742.1,211.7,741.8 M201.9,837.8c-0.3-0.2-0.5-0.4-0.7-0.6c-0.3-0.2-0.5-0.5-0.7-0.8
							c-0.2-0.3-0.4-0.6-0.6-0.9c-0.2-0.3-0.3-0.6-0.5-0.9l-48.5-111.9c-0.2-0.3-0.3-0.7-0.4-1.1c-0.1-0.3-0.1-0.5,0-0.8
							c0-0.2,0.1-0.3,0.3-0.4c0.2-0.1,0.4-0.1,0.6,0l60.6,22.3c0.4,0.2,0.7,0.4,1.1,0.6c0.4,0.3,0.7,0.6,1,1
							c0.3,0.4,0.7,0.8,0.9,1.3c0.3,0.4,0.5,0.9,0.7,1.4l44.4,126.3c0.1,0.2,0.1,0.5,0.1,0.8c0,0.2-0.1,0.3-0.2,0.4
							c-0.2,0.1-0.4,0.1-0.5,0c-0.3-0.1-0.6-0.2-0.8-0.4L201.9,837.8 M202.3,838.7c-0.4-0.3-0.7-0.5-1.1-0.9
							c-0.4-0.4-0.7-0.7-1.1-1.2c-0.3-0.4-0.7-0.8-0.9-1.3c-0.3-0.4-0.5-0.8-0.7-1.3L150,722.5c-0.2-0.5-0.4-1.1-0.5-1.6
							c-0.1-0.4-0.1-0.8-0.1-1.2c0-0.3,0.2-0.5,0.4-0.7c0.3-0.1,0.6-0.1,0.8,0l60.8,22.1c0.6,0.2,1.1,0.5,1.6,0.9
							c0.6,0.5,1.1,1,1.6,1.5c0.5,0.6,1,1.2,1.4,1.9c0.4,0.7,0.7,1.4,1,2.1l44.3,126.6c0.1,0.4,0.2,0.7,0.2,1.1
							c0,0.2-0.1,0.5-0.4,0.6c-0.3,0.1-0.6,0.1-0.8,0c-0.4-0.1-0.8-0.3-1.2-0.6L202.3,838.7 M211,740.1l-60.8-22
							c-0.3-0.1-0.7-0.1-1,0c-0.3,0.2-0.5,0.5-0.5,0.8c-0.1,0.5,0,1,0.1,1.4c0.2,0.7,0.4,1.3,0.6,1.9l48.5,111.5
							c0.2,0.5,0.5,1.1,0.8,1.6c0.3,0.5,0.7,1.1,1.1,1.5c0.4,0.5,0.8,0.9,1.3,1.4c0.4,0.4,0.8,0.7,1.3,1l56.7,36.8
							c0.4,0.3,0.9,0.5,1.5,0.7c0.3,0.1,0.7,0.1,1,0c0.3-0.1,0.4-0.4,0.4-0.7c0-0.5-0.1-0.9-0.2-1.3l-44.3-126.8
							c-0.3-0.9-0.7-1.7-1.2-2.5c-0.5-0.8-1-1.6-1.6-2.3c-0.6-0.7-1.2-1.3-1.9-1.8C212.4,740.8,211.8,740.4,211,740.1"/>
						<path class="st3" d="M261.3,877.3c-0.2,0-0.4,0-0.6-0.1c-0.6-0.2-1.1-0.4-1.6-0.8l-56.7-36.6c-0.5-0.3-0.9-0.7-1.4-1.1
							c-0.5-0.4-0.9-0.9-1.3-1.4c-0.4-0.5-0.8-1-1.2-1.6c-0.3-0.5-0.6-1.1-0.9-1.6l-48.5-111.5c-0.3-0.6-0.5-1.3-0.7-2
							c-0.1-0.5-0.2-1.1-0.1-1.6c0.1-0.5,0.3-0.9,0.7-1.1c0.5-0.2,1-0.2,1.4,0l60.8,22c0.7,0.3,1.4,0.7,2,1.2
							c0.7,0.6,1.4,1.2,1.9,1.9c0.6,0.7,1.2,1.5,1.7,2.4c0.5,0.8,0.9,1.7,1.2,2.6l44.3,126.7c0.2,0.5,0.3,1,0.2,1.6
							c0,0.5-0.3,0.9-0.7,1.1C261.7,877.2,261.5,877.3,261.3,877.3z M261.6,876.1l-0.1,0.1l0,0C261.6,876.2,261.6,876.2,261.6,876.1
							z M260.5,874.9L260.5,874.9L260.5,874.9z M151,720.9L151,720.9c0,0.3,0,0.5,0,0.7c0.1,0.3,0.2,0.7,0.3,1l48.5,111.9
							c0.1,0.3,0.3,0.5,0.4,0.8c0.2,0.3,0.4,0.6,0.6,0.8c0.2,0.3,0.4,0.5,0.7,0.7c0.2,0.2,0.4,0.4,0.6,0.5l0,0l56.8,36.5
							c0.2,0.1,0.4,0.2,0.7,0.3c0.1,0,0.1,0,0.2,0c0-0.2-0.1-0.4-0.1-0.5l-44.5-126.3c-0.2-0.5-0.4-0.9-0.6-1.3
							c-0.3-0.4-0.5-0.8-0.9-1.2c-0.3-0.4-0.6-0.7-1-1c-0.3-0.2-0.6-0.4-0.9-0.5L151.1,721L151,720.9z M150.5,720L150.5,720
							c-0.1,0-0.1,0.1-0.1,0.1L150.5,720L150.5,720L150.5,720z M149.7,718.6c-0.1,0-0.1,0-0.2,0c-0.1,0-0.1,0.1-0.1,0.2L149.7,718.6
							L149.7,718.6z"/>
					</g>
				</g>
			</g>
			<g class="st2">
				<path class="st3" d="M1468.6,1566.7l-13.9-223.7l0.2-0.2l128.3-115.9l0.3,0.3l149.6,136.5l-0.5,0.4L1468.6,1566.7z
					 M1455.7,1343.4l13.8,221.4l262.1-201.1l-148.4-135.4L1455.7,1343.4z"/>
				<g>
					<defs>
						<path id="SVGID_15_" d="M1468.6,1566.7l-13.9-223.7l0.2-0.2l128.3-115.9l0.3,0.3l149.6,136.5l-0.5,0.4L1468.6,1566.7z
							 M1455.7,1343.4l13.8,221.4l262.1-201.1l-148.4-135.4L1455.7,1343.4z"/>
					</defs>
					<clipPath id="SVGID_16_">
						<use xlink:href="#SVGID_15_"  style="overflow:visible;"/>
					</clipPath>
					<g class="st12">
						<path class="st5" d="M1576.8,1234.7l-115.2,104c-0.6,0.6-1.2,1.2-1.7,1.8c-0.5,0.6-1,1.2-1.4,1.9c-0.4,0.6-0.7,1.2-0.9,1.8
							c-0.2,0.5-0.3,1-0.3,1.5l14.2,203.2c0.1,1.2,0.4,2.3,0.9,3.3c0.4,0.8,1.1,1.4,2,1.8c0.9,0.3,1.9,0.4,2.8,0.1
							c1.2-0.3,2.4-0.9,3.4-1.7l233.3-179.6c1.4-1.1,2.7-2.4,3.7-3.8c0.9-1.2,1.6-2.7,2-4.1c0.4-1.3,0.4-2.6,0.1-3.9
							c-0.3-1.2-0.9-2.3-1.8-3.2l-134.2-125.9c-0.3-0.2-0.7-0.4-1.1-0.3c-0.6,0.1-1.1,0.2-1.7,0.4c-0.7,0.3-1.4,0.7-2,1.1
							C1578.2,1233.5,1577.4,1234,1576.8,1234.7 M1480.6,1551.2c-0.9,0.7-1.9,1.2-3,1.5c-0.8,0.2-1.7,0.2-2.5-0.1
							c-0.8-0.3-1.4-0.9-1.8-1.6c-0.5-0.9-0.8-1.9-0.8-2.9l-14.7-203c0-0.4,0.1-0.9,0.2-1.3c0.2-0.6,0.5-1.1,0.8-1.6
							c0.4-0.6,0.8-1.1,1.2-1.7c0.5-0.6,1-1.1,1.5-1.6l115.5-104.1c0.6-0.5,1.2-1,1.9-1.5c0.6-0.4,1.2-0.7,1.8-1
							c0.5-0.2,1-0.3,1.5-0.4c0.4-0.1,0.7,0,1,0.3l133.5,126.4c0.8,0.8,1.4,1.7,1.6,2.8c0.2,1.1,0.2,2.3-0.1,3.5
							c-0.4,1.3-0.9,2.5-1.7,3.7c-0.9,1.3-2,2.4-3.3,3.4L1480.6,1551.2 M1481,1555.3c-1.3,1-2.8,1.8-4.3,2.2
							c-1.2,0.3-2.5,0.3-3.7-0.2c-1.1-0.5-2-1.3-2.6-2.3c-0.7-1.3-1.1-2.8-1.2-4.3l-13.2-203.9c0-0.6,0.1-1.3,0.3-1.9
							c0.3-0.8,0.7-1.6,1.2-2.3c0.5-0.9,1.1-1.7,1.8-2.4c0.7-0.8,1.4-1.6,2.2-2.3l114.8-103.7c0.8-0.8,1.8-1.5,2.7-2.2
							c0.8-0.6,1.7-1,2.6-1.4c0.7-0.3,1.4-0.5,2.2-0.6c0.5-0.1,1,0.1,1.4,0.4l135.8,124.9c1.2,1.1,2.1,2.5,2.4,4.1
							c0.4,1.7,0.3,3.4-0.1,5.1c-0.5,1.9-1.4,3.7-2.5,5.4c-1.3,1.9-3,3.6-4.8,5L1481,1555.3 M1576.1,1234l-114.7,103.6
							c-0.9,0.8-1.7,1.6-2.4,2.5c-0.7,0.8-1.3,1.7-1.9,2.7c-0.5,0.8-0.9,1.6-1.2,2.5c-0.3,0.7-0.4,1.4-0.4,2.1l12.7,204.2
							c0.1,1.7,0.5,3.3,1.3,4.7c0.6,1.2,1.6,2.1,2.8,2.6c1.3,0.5,2.7,0.6,4,0.2c1.7-0.5,3.4-1.3,4.8-2.4l235.7-180.9
							c2-1.5,3.8-3.4,5.2-5.4c1.3-1.8,2.2-3.8,2.8-5.9c0.5-1.8,0.5-3.7,0.1-5.5c-0.4-1.7-1.4-3.3-2.7-4.5l-136.4-124.4
							c-0.4-0.3-1-0.5-1.6-0.4c-0.8,0.1-1.6,0.3-2.4,0.6c-1,0.4-1.9,1-2.8,1.6C1578,1232.4,1577,1233.2,1576.1,1234"/>
						<path class="st3" d="M1474.4,1559.7c-0.8,0-1.6-0.1-2.4-0.5c-1.3-0.6-2.4-1.6-3.1-2.8c-0.8-1.5-1.3-3.2-1.3-4.9l-12.7-204.2
							c0-0.8,0.1-1.5,0.4-2.3c0.3-0.9,0.8-1.8,1.3-2.6c0.6-0.9,1.2-1.9,1.9-2.7c0.8-0.9,1.6-1.8,2.4-2.6l114.7-103.6
							c0.9-0.9,1.9-1.6,3-2.3c0.9-0.6,1.9-1.1,2.9-1.6c0.8-0.4,1.6-0.6,2.5-0.7c0.7-0.1,1.4,0.1,2,0.5l136.3,124.5
							c1.4,1.3,2.4,2.9,2.8,4.7c0.4,1.9,0.4,3.9-0.1,5.8c-0.6,2.2-1.5,4.2-2.8,6c-1.5,2.1-3.3,3.9-5.4,5.5l-235.7,180.9
							c-1.5,1.2-3.2,2-5,2.5C1475.7,1559.6,1475.1,1559.7,1474.4,1559.7z M1468.4,1548.3l0.2,3.2c0,1.6,0.5,3.1,1.2,4.5
							c0.6,1.1,1.5,1.9,2.6,2.4c1.2,0.4,2.5,0.5,3.7,0.2c1.7-0.5,3.2-1.3,4.6-2.3l235.7-180.9c2-1.5,3.7-3.3,5.2-5.3
							c1.2-1.7,2.2-3.7,2.7-5.7c0.5-1.7,0.5-3.5,0.1-5.3c-0.4-1.6-1.3-3.1-2.5-4.2l-103.3-94.2l102.7,94.4c1.3,1.2,2.2,2.7,2.6,4.4
							c0.4,1.8,0.4,3.6-0.1,5.3c-0.5,2-1.4,3.9-2.6,5.5c-1.4,1.9-3,3.6-4.9,5.1l-235,180.5c-1.3,1.1-2.9,1.9-4.5,2.3
							c-1.3,0.4-2.7,0.3-4-0.2c-1.2-0.5-2.2-1.4-2.8-2.6c-0.7-1.4-1.2-3-1.2-4.5L1468.4,1548.3z M1456.8,1345.2
							c-0.2,0.5-0.3,1.1-0.3,1.6l13.2,203.9c0.1,1.4,0.4,2.8,1.1,4.1c0.5,1,1.3,1.7,2.3,2.1c1.1,0.4,2.3,0.5,3.4,0.1
							c1.5-0.4,2.9-1.2,4.2-2.1l235-180.5c1.8-1.4,3.4-3,4.7-4.8c1.1-1.6,2-3.3,2.5-5.2c0.4-1.6,0.5-3.2,0.1-4.8
							c-0.4-1.5-1.2-2.8-2.3-3.8l-135.8-124.9c-0.3-0.2-0.7-0.3-1.1-0.2c-0.7,0.1-1.4,0.3-2,0.6c0.3-0.1,0.5-0.1,0.8-0.1
							c0.5-0.1,1.1,0.1,1.5,0.4l134.2,125.9c1,0.9,1.7,2.1,2,3.4c0.3,1.4,0.3,2.8-0.1,4.2c-0.4,1.5-1.1,3-2,4.3
							c-1.1,1.5-2.3,2.8-3.8,3.9L1481,1552.8c-1,0.8-2.3,1.5-3.6,1.8c-1,0.3-2.1,0.2-3.2-0.1c-1-0.4-1.8-1.1-2.3-2
							c-0.6-1.1-0.9-2.3-1-3.6l-14.2-203.2C1456.8,1345.5,1456.8,1345.3,1456.8,1345.2L1456.8,1345.2z M1471.4,1541.6l0.5,7.2
							c0,1.1,0.3,2.2,0.9,3.1c0.4,0.7,1,1.3,1.8,1.6c0.8,0.3,1.7,0.3,2.6,0.1c1.2-0.3,2.2-0.9,3.2-1.7l233.3-179.6
							c1.4-1,2.6-2.3,3.6-3.7c0.9-1.2,1.5-2.6,1.9-4c0.3-1.2,0.4-2.5,0.1-3.7c-0.3-1.1-0.8-2.2-1.7-3l-101.2-95l100.7,95.3
							c0.9,0.8,1.5,1.9,1.8,3.1c0.3,1.2,0.2,2.5-0.1,3.7c-0.4,1.4-1,2.7-1.8,3.8c-0.9,1.3-2.1,2.5-3.4,3.5l-232.6,179.2
							c-0.9,0.8-2,1.3-3.1,1.6c-0.9,0.3-1.9,0.2-2.8-0.1c-0.8-0.4-1.6-1-2-1.8c-0.5-1-0.8-2.1-0.9-3.2L1471.4,1541.6z
							 M1582.2,1232.5h-0.1c-0.5,0-0.9,0.2-1.3,0.3c-0.6,0.3-1.1,0.6-1.7,0.9c-0.6,0.4-1.2,0.9-1.8,1.4l-115.4,104.2
							c-0.5,0.5-1,1-1.5,1.5c-0.4,0.5-0.8,1.1-1.2,1.6c-0.3,0.5-0.5,1-0.7,1.5c-0.1,0.3-0.2,0.7-0.2,1.1l14.7,202.9
							c0,1,0.3,1.9,0.8,2.7c0.3,0.6,0.9,1.1,1.6,1.4c0.7,0.3,1.5,0.3,2.2,0.1c1-0.3,2-0.8,2.8-1.4l232.6-179.2
							c1.2-0.9,2.3-2,3.2-3.2c0.8-1.1,1.3-2.2,1.7-3.5c0.3-1.1,0.3-2.2,0.1-3.2c-0.2-1-0.7-1.9-1.5-2.6l-133.5-126.4
							C1582.6,1232.6,1582.4,1232.5,1582.2,1232.5L1582.2,1232.5z"/>
					</g>
				</g>
			</g>
			<g class="st2">
				<path class="st3" d="M1542.4,501.1l-0.3-0.4l-131.5-169.2l0.4-0.3l244.8-173.1l0.3,0.4L1770,310.8l-0.4,0.3L1542.4,501.1z
					 M1412,331.8l130.6,168l226.1-189l-113-151.1L1412,331.8z"/>
				<g>
					<defs>
						<path id="SVGID_17_" d="M1542.4,501.1l-0.3-0.4l-131.5-169.2l0.4-0.3l244.8-173.1l0.3,0.4L1770,310.8l-0.4,0.3L1542.4,501.1z
							 M1412,331.8l130.6,168l226.1-189l-113-151.1L1412,331.8z"/>
					</defs>
					<clipPath id="SVGID_18_">
						<use xlink:href="#SVGID_17_"  style="overflow:visible;"/>
					</clipPath>
					<g class="st13">
						<path class="st5" d="M1761.4,304.6l-101.9-136.2c-1.1-1.5-2.8-2.5-4.6-2.9c-0.9-0.2-1.8-0.2-2.7,0c-0.9,0.2-1.7,0.5-2.4,1
							l-227,160.9c-0.9,0.6-1.7,1.4-2.3,2.4c-0.6,0.9-0.9,1.9-1.1,2.9c-0.2,1-0.1,2.1,0.1,3.1c0.3,1,0.7,2,1.4,2.9l117.3,151
							c0.6,0.8,1.5,1.5,2.4,2c0.9,0.5,1.9,0.8,2.9,0.8c1,0.1,2,0,3-0.4c1-0.3,2-0.9,2.8-1.6l211.1-176.1c0.7-0.6,1.2-1.3,1.6-2.1
							c0.4-0.8,0.6-1.7,0.7-2.5c0.1-0.9,0-1.8-0.2-2.7C1762.4,306.2,1761.9,305.3,1761.4,304.6 M1421.8,338c-0.6-0.7-1-1.6-1.2-2.5
							c-0.2-0.9-0.2-1.8-0.1-2.6c0.2-0.9,0.5-1.8,1-2.5c0.5-0.8,1.2-1.5,2-2.1l226.9-161c0.6-0.4,1.4-0.8,2.1-0.9
							c0.8-0.1,1.5-0.1,2.3,0c1.6,0.3,3,1.2,4,2.5l101.9,136.2c0.5,0.7,0.9,1.4,1.1,2.2c0.2,0.8,0.3,1.5,0.2,2.3
							c-0.1,0.8-0.3,1.5-0.6,2.2c-0.3,0.7-0.8,1.3-1.4,1.8l-211.3,176c-0.7,0.6-1.6,1.1-2.5,1.4c-0.9,0.3-1.7,0.4-2.6,0.3
							c-0.9-0.1-1.7-0.3-2.5-0.7c-0.8-0.4-1.5-1-2.1-1.7L1421.8,338 M1419.1,340c-0.8-1.1-1.4-2.3-1.8-3.6c-0.3-1.3-0.4-2.6-0.1-3.9
							c0.2-1.3,0.7-2.6,1.4-3.7c0.7-1.2,1.7-2.2,2.9-3L1648.7,165c0.9-0.7,2-1.1,3.1-1.3c1.1-0.2,2.2-0.2,3.3,0
							c1.1,0.2,2.2,0.7,3.2,1.3c1,0.6,1.9,1.5,2.7,2.4l101.8,136.1c1.4,1.9,2.1,4.2,1.9,6.6c-0.1,1.1-0.4,2.2-0.9,3.2
							c-0.5,1-1.2,1.9-2.1,2.6l-211,176.3c-1.1,0.9-2.3,1.6-3.6,2c-1.2,0.4-2.6,0.6-3.9,0.5c-2.6-0.2-5.1-1.5-6.7-3.6L1419.1,340
							 M1763.4,302.9l-101.8-136c-0.8-1.1-1.8-2-2.9-2.7c-1.1-0.7-2.3-1.2-3.5-1.4c-1.2-0.2-2.5-0.2-3.7,0c-1.2,0.2-2.4,0.7-3.4,1.5
							l-227.3,160.6c-1.3,0.9-2.3,2-3.2,3.3c-0.8,1.2-1.3,2.6-1.6,4.1c-0.5,2.9,0.3,6,2.1,8.3l117.5,151.1c0.9,1.2,2,2.1,3.3,2.8
							c1.3,0.7,2.6,1.1,4.1,1.2c1.4,0.1,2.9-0.1,4.3-0.5c1.5-0.5,2.8-1.2,4-2.2l210.9-176.4c1-0.8,1.7-1.8,2.3-2.9
							c0.5-1.1,0.9-2.3,1-3.5c0.1-1.3,0-2.5-0.4-3.8C1764.8,305.1,1764.3,303.9,1763.4,302.9"/>
						<path class="st3" d="M1544,496.2c-0.3,0-0.6,0-0.9,0c-1.5-0.1-2.9-0.5-4.2-1.2c-1.4-0.7-2.6-1.7-3.5-2.9l-117.5-151.2
							c-1.9-2.5-2.7-5.6-2.2-8.7c0.3-1.5,0.8-3,1.6-4.2c0.9-1.4,2-2.5,3.3-3.5l227.3-160.7c1.1-0.8,2.3-1.3,3.6-1.5
							c1.3-0.3,2.6-0.3,3.9,0c1.3,0.3,2.6,0.8,3.7,1.5c1.2,0.7,2.2,1.7,3.1,2.8l101.8,136c0.8,1.1,1.4,2.4,1.8,3.7
							c0.4,1.3,0.5,2.6,0.4,3.9c-0.1,1.3-0.4,2.6-1,3.7c-0.6,1.2-1.4,2.2-2.4,3.1l-210.9,176.4c-1.2,1-2.6,1.8-4.1,2.3
							C1546.4,496,1545.2,496.2,1544,496.2z M1561.6,225.9l-140.5,99.4c-1.2,0.9-2.2,1.9-3,3.2c-0.7,1.2-1.2,2.5-1.5,3.9
							c-0.5,2.8,0.2,5.7,2,7.9l117.4,151.1c0.9,1.1,1.9,2,3.2,2.7c1.2,0.6,2.5,1,3.9,1.1c1.4,0.1,2.8,0,4.1-0.5
							c1.4-0.4,2.7-1.2,3.8-2.1l82.2-68.7l-82.2,68.6c-1.1,0.9-2.4,1.6-3.8,2.1c-1.3,0.4-2.7,0.6-4.1,0.5c-1.3-0.1-2.7-0.5-3.9-1.1
							c-1.2-0.7-2.3-1.6-3.2-2.7l-117.4-151.1l0,0c-1.8-2.2-2.5-5.1-2-7.9c0.2-1.4,0.7-2.7,1.5-3.9c0.8-1.2,1.8-2.3,3-3.1
							L1561.6,225.9z M1653.4,163.9c-0.5,0-1,0.1-1.5,0.1c-1.1,0.2-2,0.6-2.9,1.2l-227.2,160.8c-1.1,0.8-2,1.7-2.8,2.9
							c-0.7,1.1-1.1,2.3-1.3,3.5c-0.4,2.5,0.2,5.1,1.8,7.1l0,0l117.5,151.1c0.8,1,1.7,1.8,2.8,2.4c1.1,0.6,2.3,0.9,3.5,1
							c1.2,0.1,2.5,0,3.7-0.4c1.3-0.4,2.4-1,3.4-1.9l211-176.3c0.8-0.7,1.5-1.5,1.9-2.5c0.5-0.9,0.8-2,0.8-3c0.1-1.1,0-2.2-0.3-3.2
							c-0.3-1.1-0.8-2.1-1.5-3l-101.8-136.1c-0.7-0.9-1.5-1.7-2.5-2.3c-0.9-0.6-1.9-1-3-1.2C1654.5,164,1653.9,164,1653.4,163.9
							L1653.4,163.9z M1544.2,493h-0.7c-1.1-0.1-2.1-0.4-3.1-0.9c-1-0.5-1.8-1.2-2.5-2.1l-117.3-151c-0.7-0.9-1.2-1.9-1.5-3
							c-0.3-1.1-0.3-2.2-0.1-3.3c0.2-1.1,0.6-2.1,1.2-3.1c0.6-1,1.4-1.8,2.4-2.5l227-160.9c0.8-0.6,1.7-0.9,2.6-1.1
							c0.9-0.2,1.9-0.2,2.8,0c1,0.2,1.9,0.5,2.7,1.1c0.9,0.5,1.6,1.2,2.2,2.1l101.9,136.1c0.6,0.8,1.1,1.7,1.3,2.7
							c0.3,0.9,0.3,1.9,0.3,2.9c-0.1,0.9-0.3,1.9-0.8,2.7c-0.4,0.9-1,1.6-1.8,2.2l-211.1,176.1c-0.9,0.7-1.9,1.3-3,1.6
							C1545.9,492.8,1545,493,1544.2,493z M1563.5,228.4l-140.4,99.5c-0.8,0.6-1.6,1.4-2.1,2.2c-0.5,0.8-0.9,1.8-1,2.7
							c-0.3,2,0.2,4,1.4,5.5l117.3,151c0.6,0.8,1.4,1.4,2.2,1.9c0.8,0.4,1.8,0.7,2.7,0.8c1,0.1,1.9,0,2.9-0.3c1-0.3,1.9-0.8,2.7-1.5
							l82.8-69.1l-82.8,69c-0.8,0.6-1.7,1.1-2.6,1.4c-0.9,0.3-1.9,0.4-2.8,0.3c-0.9-0.1-1.9-0.3-2.7-0.8c-0.9-0.5-1.6-1.1-2.2-1.9
							l-117.3-151c-1.2-1.6-1.7-3.6-1.4-5.5c0.2-1,0.5-1.9,1-2.7c0.5-0.9,1.3-1.6,2.1-2.2L1563.5,228.4z M1653.6,166.8
							c-0.3,0-0.7,0-1,0.1c-0.7,0.1-1.4,0.4-1.9,0.8l-226.9,161c-0.7,0.5-1.3,1.2-1.8,1.9c-0.5,0.7-0.8,1.5-0.9,2.3
							c-0.1,0.8-0.1,1.6,0.1,2.5c0.2,0.8,0.6,1.6,1.1,2.3l0,0l117.3,150.9c0.5,0.7,1.2,1.2,1.9,1.6c0.7,0.4,1.5,0.6,2.3,0.7
							c0.8,0.1,1.7,0,2.4-0.3c0.8-0.3,1.6-0.7,2.3-1.3l211.2-176.1c0.5-0.5,1-1,1.3-1.6c0.3-0.6,0.5-1.3,0.6-2
							c0.1-1.5-0.3-3-1.2-4.2l-102-136.3c-0.5-0.6-1-1.1-1.7-1.5c-0.6-0.4-1.3-0.7-2-0.8C1654.4,166.8,1654,166.7,1653.6,166.8
							L1653.6,166.8z"/>
					</g>
				</g>
			</g>
			<g class="st2">
				<path class="st3" d="M912.3,1478.7l-0.4-0.3l-134.1-103.7l0.3-0.4l141-165.8l0.4,0.3l102.7,92.5l-0.2,0.4L912.3,1478.7z
					 M779.2,1374.5l132.9,102.8l108.8-175.8l-101.7-91.6L779.2,1374.5z"/>
				<g>
					<defs>
						<path id="SVGID_19_" d="M912.3,1478.7l-0.4-0.3l-134.1-103.7l0.3-0.4l141-165.8l0.4,0.3l102.7,92.5l-0.2,0.4L912.3,1478.7z
							 M779.2,1374.5l132.9,102.8l108.8-175.8l-101.7-91.6L779.2,1374.5z"/>
					</defs>
					<clipPath id="SVGID_20_">
						<use xlink:href="#SVGID_19_"  style="overflow:visible;"/>
					</clipPath>
					<g class="st14">
						<path class="st5" d="M1015.5,1298.1l-91.8-82.5c-0.5-0.5-1.1-0.9-1.8-1.2c-0.6-0.3-1.2-0.4-1.9-0.4c-0.6,0-1.2,0.1-1.8,0.3
							c-0.6,0.2-1.1,0.6-1.5,1l-130,153.7c-0.6,0.7-1,1.5-1.3,2.3c-0.2,0.8-0.3,1.7-0.2,2.5c0.2,1.8,1.1,3.4,2.5,4.4l119.2,92.3
							c0.6,0.5,1.4,0.8,2.1,1c0.7,0.2,1.5,0.2,2.2,0c0.8-0.2,1.5-0.5,2.1-0.9c0.7-0.5,1.3-1.1,1.7-1.8l101.9-163.8
							c0.3-0.5,0.5-1.1,0.6-1.7c0.1-0.6,0.1-1.3-0.1-1.9c-0.1-0.6-0.4-1.3-0.7-1.8C1016.4,1299.1,1016,1298.5,1015.5,1298.1
							 M788.4,1377.4c-0.6-0.4-1.1-1-1.4-1.7c-0.7-1.3-0.9-2.7-0.4-4.1c0.2-0.7,0.6-1.4,1.1-1.9L917.4,1216c0.3-0.4,0.7-0.7,1.2-0.9
							c0.5-0.2,1-0.3,1.5-0.2c0.5,0,1.1,0.1,1.6,0.4c0.6,0.2,1.1,0.6,1.5,1l91.9,82.6c0.4,0.4,0.7,0.8,1,1.3c0.3,0.5,0.5,1,0.6,1.5
							c0.1,0.5,0.1,1,0.1,1.6c-0.1,0.5-0.2,1-0.5,1.4l-102,163.7c-0.4,0.6-0.8,1.1-1.4,1.5c-0.5,0.4-1.1,0.6-1.7,0.8
							c-0.6,0.1-1.3,0.1-1.9,0c-0.6-0.1-1.2-0.4-1.8-0.8L788.4,1377.4 M786.8,1379.5c-2.6-2-3.7-5.4-2.8-8.5c0.3-1,0.9-2,1.6-2.8
							l130.3-153.6c0.5-0.6,1.1-1,1.8-1.3c0.7-0.3,1.4-0.4,2.2-0.4c0.8,0,1.6,0.2,2.3,0.5c0.8,0.3,1.6,0.8,2.2,1.4l91.7,82.5
							c0.6,0.6,1.1,1.2,1.5,1.9c0.4,0.7,0.7,1.5,0.8,2.3c0.2,0.8,0.2,1.5,0.1,2.3c-0.1,0.7-0.3,1.4-0.7,2.1l-101.7,163.8
							c-0.5,0.9-1.3,1.7-2.1,2.3c-0.8,0.6-1.6,0.9-2.6,1.2c-0.9,0.2-1.9,0.2-2.8,0c-0.9-0.2-1.8-0.6-2.6-1.2L786.8,1379.5
							 M1016.3,1296.7l-91.6-82.4c-0.7-0.7-1.6-1.2-2.5-1.6c-0.8-0.4-1.7-0.6-2.7-0.6c-0.9,0-1.7,0.1-2.5,0.4
							c-0.8,0.3-1.5,0.8-2,1.4l-130.5,153.4c-3.2,3.8-2.8,9.5,1,12.7c0.1,0.1,0.3,0.2,0.4,0.3l119.5,92.4c0.9,0.7,1.9,1.2,3,1.4
							c1,0.2,2.1,0.2,3.1,0c1.1-0.2,2.1-0.7,2.9-1.3c0.9-0.7,1.7-1.5,2.3-2.5l101.5-163.9c0.4-0.7,0.7-1.5,0.8-2.4
							c0.1-0.9,0.1-1.8-0.1-2.6C1018.8,1299.6,1017.8,1297.9,1016.3,1296.7"/>
						<path class="st3" d="M910.1,1474.9c-0.6,0-1.1-0.1-1.7-0.2c-1.2-0.3-2.2-0.8-3.2-1.5l-119.5-92.4c-1-0.8-1.9-1.8-2.6-3
							c-0.6-1.1-1-2.3-1.1-3.6c-0.1-1.3,0-2.5,0.3-3.7c0.4-1.3,1-2.4,1.9-3.4l130.5-153.5c0.6-0.7,1.4-1.2,2.3-1.5
							c0.9-0.3,1.8-0.5,2.7-0.4c1,0,1.9,0.3,2.8,0.7c1,0.4,1.9,1,2.7,1.7l91.6,82.4c1.5,1.3,2.5,3.1,2.9,5.1
							c0.2,0.9,0.2,1.9,0.1,2.8c-0.1,0.9-0.4,1.8-0.9,2.6l-101.5,163.9c-0.6,1-1.5,2-2.5,2.7c-0.9,0.7-2,1.1-3.1,1.4
							C911.2,1474.8,910.6,1474.9,910.1,1474.9z M888,1246.6l-103,121.1c-0.8,0.9-1.3,1.9-1.7,3.1c-0.3,1.1-0.4,2.2-0.3,3.3
							c0.1,1.1,0.5,2.2,1,3.2c0.6,1,1.4,1.9,2.3,2.7l119.5,92.4c0.8,0.6,1.8,1.1,2.8,1.3c1,0.2,2,0.2,2.9,0c1-0.2,1.9-0.6,2.7-1.2
							c0.9-0.6,1.6-1.5,2.2-2.4l13-21l-13,21c-0.6,0.9-1.3,1.7-2.2,2.4c-0.8,0.6-1.8,1-2.8,1.2c-1,0.2-2,0.2-3,0
							c-1-0.2-2-0.7-2.8-1.3l-119.4-92.4c-0.9-0.7-1.7-1.6-2.2-2.6c-0.5-1-0.9-2.1-1-3.2c-0.1-1.1,0-2.2,0.3-3.3
							c0.3-1.1,0.9-2.1,1.7-3L888,1246.6z M787,1379.1l119.4,92.4c0.7,0.6,1.5,0.9,2.4,1.2c0.8,0.2,1.7,0.2,2.5,0
							c0.9-0.2,1.7-0.5,2.4-1.1c0.8-0.6,1.4-1.3,1.9-2.1l101.7-163.9c0.3-0.6,0.6-1.2,0.7-1.9l0,0c-0.1,0.6-0.3,1.2-0.6,1.7
							l-101.8,163.8c-0.5,0.8-1.1,1.5-1.8,2c-0.7,0.5-1.5,0.8-2.3,1c-0.8,0.2-1.7,0.2-2.5,0c-0.9-0.2-1.6-0.6-2.3-1.1l-119.2-92.4
							c-3-2.3-3.6-6.7-1.3-9.7c0.1-0.1,0.1-0.2,0.2-0.3l130-153.7c0.4-0.5,1-0.9,1.7-1.2c0.6-0.2,1.3-0.4,2-0.3
							c0.7,0,1.4,0.2,2.1,0.5c0.2,0.1,0.5,0.2,0.7,0.3c-0.3-0.2-0.5-0.3-0.8-0.4c-0.7-0.3-1.4-0.5-2.2-0.5c-0.7,0-1.4,0.1-2,0.3
							c-0.6,0.2-1.2,0.6-1.6,1.1l-130.2,153.5c-0.7,0.8-1.2,1.7-1.5,2.7c-0.6,1.9-0.4,3.9,0.6,5.7
							C785.5,1377.6,786.2,1378.4,787,1379.1L787,1379.1z M883.3,1255.6l-96.3,113.8c-1.6,1.9-1.9,4.6-0.7,6.7
							c0.4,0.7,0.9,1.4,1.6,1.9l119.2,92.3c0.6,0.4,1.2,0.8,1.9,0.9c0.7,0.1,1.3,0.1,2,0c0.7-0.1,1.3-0.4,1.9-0.8
							c0.6-0.5,1.2-1,1.6-1.7l14.2-22.8l-14.2,22.7c-0.4,0.6-0.9,1.2-1.5,1.7c-0.6,0.4-1.2,0.7-1.9,0.9c-0.7,0.2-1.4,0.2-2.1,0
							c-0.7-0.2-1.4-0.5-2-0.9l-119-92.3c-0.6-0.5-1.2-1.1-1.6-1.8c-0.8-1.4-0.9-3-0.5-4.5c0.2-0.8,0.6-1.5,1.2-2.1L883.3,1255.6z
							 M920,1215.3c-0.4,0-0.8,0.1-1.2,0.2c-0.4,0.2-0.7,0.4-1,0.7L788,1370c-0.5,0.5-0.8,1.1-1,1.8c-0.2,0.6-0.3,1.3-0.2,1.9
							c0.1,0.6,0.3,1.3,0.6,1.8c0.3,0.6,0.8,1.1,1.3,1.5l0,0l119,92.3c0.5,0.4,1,0.6,1.6,0.8c0.5,0.1,1.1,0.1,1.7,0
							c0.6-0.1,1.1-0.4,1.6-0.7c0.5-0.4,0.9-0.8,1.3-1.4l102-163.7c0.2-0.4,0.4-0.8,0.4-1.2c0.1-0.5,0.1-0.9,0-1.4
							c-0.1-0.5-0.3-1-0.5-1.4c-0.3-0.5-0.6-0.9-1-1.2l-91.9-82.6c-0.4-0.4-0.9-0.7-1.4-0.9C921,1215.4,920.5,1215.3,920,1215.3
							L920,1215.3z"/>
					</g>
				</g>
			</g>
			<g class="st2">
				<path class="st3" d="M683.4,600.7l-0.4-0.2l-105.7-57.1l45-48.7l0.3,0.2l98.8,48.1L683.4,600.7z M578.8,543.1L683,599.3l37-56
					l-97.5-47.4L578.8,543.1z"/>
				<g>
					<defs>
						<path id="SVGID_21_" d="M683.4,600.7l-0.4-0.2l-105.7-57.1l45-48.7l0.3,0.2l98.8,48.1L683.4,600.7z M578.8,543.1L683,599.3
							l37-56l-97.5-47.4L578.8,543.1z"/>
					</defs>
					<clipPath id="SVGID_22_">
						<use xlink:href="#SVGID_21_"  style="overflow:visible;"/>
					</clipPath>
					<g class="st15">
						<path class="st5" d="M621,498.2l-39.3,42.7c-0.3,0.3-0.4,0.6-0.5,0.9c-0.1,0.3-0.1,0.7-0.1,1c0.1,0.3,0.2,0.6,0.4,0.9
							c0.2,0.3,0.5,0.6,0.9,0.7l97.2,52.4c0.8,0.4,1.8,0.6,2.7,0.4c0.4-0.1,0.8-0.2,1.2-0.5c0.4-0.2,0.7-0.5,0.9-0.9l33.4-50.5
							c0.2-0.3,0.3-0.6,0.3-0.9c0-0.3,0-0.7-0.2-1c-0.1-0.3-0.3-0.6-0.6-0.9c-0.3-0.3-0.6-0.5-1-0.7l-91.1-44.3
							c-0.4-0.2-0.7-0.3-1.1-0.3c-0.4,0-0.8,0-1.2,0c-0.4,0-0.7,0.2-1.1,0.3C621.6,497.7,621.3,497.9,621,498.2 M683.4,595.4
							c-0.2,0.2-0.4,0.4-0.6,0.6c-0.3,0.2-0.5,0.3-0.8,0.3c-0.3,0.1-0.6,0.1-0.9,0c-0.3-0.1-0.6-0.2-0.9-0.3L583,543.8
							c-0.2-0.1-0.4-0.3-0.6-0.5c-0.1-0.2-0.2-0.4-0.3-0.6c-0.1-0.2-0.1-0.5,0-0.7c0.1-0.2,0.2-0.5,0.4-0.7l39.3-42.7
							c0.2-0.2,0.4-0.3,0.6-0.4c0.2-0.1,0.5-0.2,0.7-0.2c0.3,0,0.5,0,0.8,0c0.3,0,0.5,0.1,0.8,0.2l91.2,44.4
							c0.3,0.1,0.5,0.3,0.7,0.5c0.2,0.2,0.3,0.4,0.4,0.6c0.1,0.2,0.1,0.4,0.1,0.7c0,0.2-0.1,0.5-0.2,0.7L683.4,595.4 M684.5,596
							c-0.2,0.4-0.6,0.7-1,0.9c-0.4,0.2-0.8,0.4-1.3,0.5c-0.5,0.1-1,0.1-1.4,0c-0.5-0.1-1-0.2-1.4-0.5l-97.2-52.4
							c-0.4-0.2-0.7-0.5-0.9-0.8c-0.2-0.3-0.4-0.6-0.5-1c-0.1-0.3,0-0.7,0.1-1c0.1-0.4,0.3-0.7,0.6-1l39.3-42.7
							c0.3-0.3,0.6-0.5,0.9-0.6c0.4-0.2,0.7-0.3,1.1-0.3c0.4-0.1,0.8-0.1,1.2,0c0.4,0,0.8,0.2,1.2,0.4l91.1,44.3
							c0.4,0.2,0.7,0.4,1.1,0.8c0.3,0.3,0.5,0.6,0.7,1c0.1,0.3,0.2,0.7,0.2,1c0,0.4-0.1,0.7-0.3,1L684.5,596 M620.1,497.7
							l-39.4,42.6c-0.3,0.4-0.6,0.8-0.8,1.3c-0.1,0.4-0.2,0.9-0.1,1.3c0.1,0.5,0.3,0.9,0.6,1.2c0.3,0.4,0.7,0.8,1.2,1l97.3,52.5
							c0.6,0.3,1.2,0.5,1.8,0.6c0.6,0.1,1.2,0.1,1.8,0c0.6-0.1,1.1-0.3,1.6-0.6c0.5-0.3,0.9-0.7,1.2-1.2l33.3-50.5
							c0.3-0.4,0.4-0.8,0.4-1.3c0-0.5-0.1-0.9-0.2-1.3c-0.2-0.5-0.5-0.9-0.8-1.2c-0.4-0.4-0.9-0.8-1.4-1l-91-44.2
							c-0.5-0.2-1-0.4-1.5-0.5c-0.5-0.1-1.1-0.1-1.6,0c-0.5,0.1-1,0.2-1.5,0.4C620.8,497.1,620.4,497.4,620.1,497.7"/>
						<path class="st3" d="M681.7,598.9c-0.3,0-0.6,0-0.9-0.1c-0.7-0.1-1.4-0.3-2-0.7l-97.3-52.5c-0.5-0.3-1-0.7-1.4-1.1
							c-0.3-0.4-0.6-0.9-0.7-1.5c-0.1-0.5-0.1-1.1,0.1-1.6c0.2-0.6,0.5-1.1,0.9-1.5l39.4-42.6c0.4-0.4,0.8-0.7,1.3-0.9
							c0.5-0.2,1-0.4,1.6-0.5c0.6-0.1,1.1-0.1,1.7,0c0.6,0.1,1.1,0.2,1.7,0.5l91,44.2c0.6,0.3,1.1,0.6,1.5,1.1
							c0.4,0.4,0.7,0.9,0.9,1.4c0.2,0.5,0.3,1,0.3,1.5c0,0.5-0.2,1.1-0.5,1.5l-33.3,50.6c-0.4,0.5-0.8,1-1.4,1.3
							c-0.6,0.3-1.2,0.6-1.8,0.7C682.4,598.9,682,598.9,681.7,598.9z M685,596.3c-0.3,0.4-0.7,0.8-1.1,1l-0.3,0.2
							c0.2-0.1,0.3-0.1,0.5-0.2c0.4-0.3,0.8-0.6,1.1-1l26.9-40.9L685,596.3z M683.8,595.7c-0.2,0.3-0.5,0.6-0.8,0.7l-0.1,0l0.2-0.1
							c0.3-0.2,0.5-0.4,0.7-0.7l26.4-39.9L683.8,595.7z M623.5,498.4h-0.3c-0.2,0-0.4,0.1-0.6,0.2c-0.2,0.1-0.3,0.2-0.4,0.3
							l-39.3,42.7c-0.1,0.1-0.2,0.3-0.3,0.5c0,0.1,0,0.3,0,0.5c0,0.2,0.1,0.3,0.2,0.4c0.1,0.2,0.3,0.3,0.5,0.4l97.1,52.3
							c0.2,0.1,0.5,0.2,0.8,0.3c0.3,0,0.5,0,0.8,0c0.2,0,0.5-0.1,0.7-0.2c0.2-0.1,0.3-0.3,0.5-0.4l33.4-50.4
							c0.1-0.1,0.1-0.3,0.1-0.4c0-0.2,0-0.3-0.1-0.5c-0.1-0.2-0.2-0.3-0.3-0.5c-0.2-0.2-0.4-0.3-0.6-0.4l-91.1-44.5
							c-0.2-0.1-0.4-0.2-0.6-0.2L623.5,498.4z M718.7,544.9c0,0.2-0.1,0.3-0.1,0.5C718.6,545.2,718.7,545,718.7,544.9z M717.6,544.7
							l-0.1,0.2L717.6,544.7z M580.4,541.8c-0.1,0.3-0.1,0.7,0,1c0,0.2,0.1,0.4,0.2,0.6c-0.1-0.2-0.2-0.4-0.2-0.6
							C580.4,542.5,580.4,542.2,580.4,541.8L580.4,541.8z M581.6,542c0,0.2,0,0.4,0,0.7c0,0.1,0.1,0.3,0.1,0.4
							c0-0.1-0.1-0.2-0.1-0.3C581.6,542.5,581.6,542.2,581.6,542L581.6,542z"/>
					</g>
				</g>
			</g>
			<g class="st2">
				<path class="st3" d="M1604.3,726.6l-63.4-42.2l0.2-0.4l40.2-77.3L1635,646l-0.1,0.4L1604.3,726.6z M1542.2,684.1l61.6,41
					l29.9-78.7l-52.1-38.2L1542.2,684.1z"/>
				<g>
					<defs>
						<path id="SVGID_23_" d="M1604.3,726.6l-63.4-42.2l0.2-0.4l40.2-77.3L1635,646l-0.1,0.4L1604.3,726.6z M1542.2,684.1l61.6,41
							l29.9-78.7l-52.1-38.2L1542.2,684.1z"/>
					</defs>
					<clipPath id="SVGID_24_">
						<use xlink:href="#SVGID_23_"  style="overflow:visible;"/>
					</clipPath>
					<g class="st16">
						<path class="st5" d="M1631.2,644.8l-47-34.4c-0.3-0.2-0.6-0.4-1-0.5c-0.3-0.1-0.6-0.1-0.9-0.1c-0.3,0-0.5,0.1-0.8,0.2
							c-0.2,0.1-0.4,0.3-0.6,0.6l-36.8,71c-0.2,0.3-0.3,0.7-0.3,1.1c0,0.4,0.1,0.8,0.2,1.2c0.1,0.4,0.3,0.8,0.6,1.1
							c0.3,0.3,0.6,0.6,0.9,0.9l55.4,36.8c0.3,0.2,0.6,0.4,1,0.4c0.3,0.1,0.7,0.1,1,0c0.3-0.1,0.6-0.2,0.8-0.5
							c0.3-0.2,0.5-0.5,0.6-0.8l28.1-73.5c0.1-0.3,0.1-0.6,0.1-0.9c0-0.3-0.1-0.6-0.2-1c-0.1-0.3-0.3-0.6-0.5-0.9
							c-0.2-0.3-0.5-0.5-0.8-0.8 M1546.1,685c-0.2-0.2-0.4-0.4-0.6-0.6c-0.2-0.2-0.3-0.5-0.4-0.7c-0.1-0.2-0.1-0.5-0.1-0.8
							c0-0.3,0.1-0.5,0.2-0.7l36.6-71c0.1-0.2,0.2-0.3,0.4-0.4c0.2-0.1,0.3-0.1,0.5-0.2c0.2,0,0.4,0,0.6,0.1
							c0.2,0.1,0.4,0.2,0.6,0.3l47,34.4c0.2,0.1,0.4,0.3,0.5,0.5c0.1,0.2,0.3,0.4,0.3,0.6c0.1,0.2,0.1,0.4,0.2,0.6
							c0,0.2,0,0.4-0.1,0.6l-28.2,73.5c-0.1,0.2-0.2,0.4-0.4,0.6c-0.2,0.1-0.4,0.2-0.6,0.3c-0.2,0-0.4,0-0.7,0
							c-0.2-0.1-0.5-0.2-0.7-0.3L1546.1,685 M1545.6,685.9c-0.7-0.5-1.3-1.2-1.6-2c-0.1-0.4-0.2-0.8-0.2-1.2c0-0.4,0.1-0.8,0.3-1.1
							l36.8-71c0.1-0.3,0.3-0.5,0.6-0.6c0.2-0.1,0.5-0.2,0.8-0.2c0.3,0,0.6,0,0.9,0.1c0.4,0.1,0.7,0.3,1,0.5l47,34.4
							c0.3,0.2,0.6,0.5,0.8,0.8c0.2,0.3,0.4,0.6,0.5,0.9c0.1,0.3,0.2,0.7,0.2,1c0,0.3,0,0.6-0.1,0.9l-28.1,73.5
							c-0.1,0.3-0.3,0.6-0.6,0.9c-0.2,0.2-0.5,0.4-0.9,0.5c-0.3,0.1-0.7,0.1-1,0c-0.4-0.1-0.7-0.2-1.1-0.5L1545.6,685.9
							 M1631.6,644.2l-46.9-34.4c-0.4-0.3-0.8-0.5-1.3-0.7c-0.4-0.1-0.8-0.2-1.2-0.2c-0.4,0-0.8,0.1-1.1,0.3
							c-0.3,0.2-0.6,0.5-0.8,0.8l-36.9,71c-0.2,0.5-0.4,1-0.4,1.5c0,0.5,0.1,1.1,0.2,1.6c0.2,0.5,0.4,1,0.8,1.5
							c0.4,0.5,0.8,0.9,1.3,1.2l55.5,36.9c0.4,0.3,0.9,0.5,1.4,0.6c0.4,0.1,0.9,0.1,1.4,0c0.4-0.1,0.8-0.3,1.1-0.6
							c0.3-0.3,0.6-0.7,0.8-1.2l28-73.6c0.1-0.4,0.2-0.8,0.2-1.2c0-0.4-0.1-0.9-0.3-1.3c-0.2-0.4-0.4-0.9-0.7-1.2
							C1632.3,644.9,1632,644.5,1631.6,644.2"/>
						<path class="st3" d="M1602.8,724.8c-0.2,0-0.5,0-0.7-0.1c-0.6-0.1-1.1-0.3-1.6-0.7l-55.5-36.9c-0.5-0.4-1-0.8-1.4-1.3
							c-0.4-0.5-0.7-1-0.9-1.6c-0.2-0.6-0.3-1.2-0.3-1.8c0-0.6,0.2-1.2,0.4-1.7l36.9-71c0.2-0.4,0.5-0.8,0.9-1
							c0.4-0.2,0.8-0.4,1.3-0.4c0.5,0,1,0,1.4,0.2c0.5,0.2,1,0.4,1.4,0.8l46.9,34.4c0.4,0.3,0.8,0.7,1.1,1.1
							c0.3,0.4,0.6,0.9,0.8,1.3c0.2,0.5,0.3,0.9,0.3,1.4c0,0.5,0,1-0.2,1.4l-28,73.6c-0.2,0.5-0.5,1-0.9,1.3
							c-0.4,0.4-0.8,0.6-1.3,0.7C1603.3,724.7,1603,724.7,1602.8,724.8z M1602.5,723.8c0.3,0,0.6,0,0.9-0.1c0.3-0.1,0.7-0.3,0.9-0.5
							c0.2-0.2,0.4-0.4,0.5-0.7c-0.3,0.6-0.9,1-1.6,1.2C1603,723.7,1602.7,723.7,1602.5,723.8L1602.5,723.8z M1602.4,722.7
							c0.2,0,0.4,0,0.6,0c0.2-0.1,0.5-0.2,0.6-0.3c0.2-0.1,0.3-0.3,0.4-0.5c-0.1,0.1-0.2,0.3-0.3,0.4c-0.2,0.2-0.5,0.3-0.8,0.4
							C1602.7,722.7,1602.5,722.7,1602.4,722.7L1602.4,722.7z M1582.8,611.1L1582.8,611.1c-0.1,0-0.2,0-0.3,0.1
							c-0.1,0-0.1,0.1-0.2,0.2l-36.6,71c-0.1,0.2-0.1,0.3-0.1,0.5c0,0.2,0,0.4,0.1,0.6c0.1,0.2,0.2,0.4,0.3,0.6
							c0.1,0.2,0.3,0.3,0.5,0.5l55.3,36.8c0.2,0.1,0.3,0.2,0.5,0.2c0.1,0,0.3,0,0.4,0c0.1,0,0.3-0.1,0.3-0.2
							c0.1-0.1,0.2-0.2,0.2-0.4l28.2-73.5c0-0.1,0-0.2,0-0.4c0-0.2-0.1-0.3-0.1-0.5c-0.1-0.2-0.2-0.3-0.3-0.5
							c-0.1-0.2-0.3-0.3-0.4-0.4l-47-34.4c-0.1-0.1-0.3-0.2-0.5-0.3C1583.1,611.1,1582.9,611.1,1582.8,611.1L1582.8,611.1z
							 M1565.9,640.8l-21.2,41c-0.1,0.3-0.2,0.6-0.2,0.9v0.2l0,0c0-0.3,0.1-0.6,0.2-0.9L1565.9,640.8z M1563,644.2l-19.3,37
							c-0.2,0.4-0.3,0.8-0.3,1.3v0.1c0-0.4,0.1-0.9,0.3-1.3L1563,644.2z"/>
					</g>
				</g>
			</g>
		</g>
		<g id="fill" class="st17">
			<g>
				<g class="st18">
					<g>
						<path class="st19" d="M268.6,22.6l-226,217.3c-1,1-1.7,2.2-2.1,3.5c-0.4,1.3-0.4,2.7-0.2,4.2c0.2,1.5,0.7,3,1.5,4.4
							c0.8,1.4,1.9,2.8,3.2,4.1l271.1,255.2c0.7,0.7,1.6,1.2,2.6,1.6c1,0.4,2,0.7,3.1,0.8c1.1,0.1,2.2,0.1,3.3-0.1
							c1.1-0.2,2.2-0.5,3.1-1l201.4-101.1c1.3-0.7,2.5-1.5,3.4-2.4c0.9-0.9,1.7-1.9,2.1-3c0.5-1,0.7-2.1,0.7-3.2
							c0-1.1-0.3-2.1-0.9-3L289.7,25.9c-1.3-2-2.8-3.5-4.6-4.7c-1.7-1.2-3.6-1.9-5.5-2.2c-1.9-0.3-3.9-0.1-5.7,0.5
							C272,20,270.2,21.1,268.6,22.6"/>
					</g>
				</g>
			</g>
			<g>
				<g class="st18">
					<g>
						<path class="st19" d="M1354.4,997.3L1226,972c-0.7-0.1-1.5-0.1-2.2,0s-1.4,0.4-2,0.7c-0.6,0.4-1.1,0.8-1.6,1.4
							c-0.4,0.5-0.8,1.2-0.9,1.9l-52.7,201.3c-0.2,0.8-0.3,1.7-0.2,2.5c0.1,0.8,0.4,1.5,0.7,2.2c0.4,0.7,0.9,1.3,1.5,1.7
							c0.6,0.5,1.3,0.8,2.1,1l140.5,32.5c0.8,0.2,1.7,0.2,2.5,0.1s1.5-0.5,2.2-0.9c0.7-0.4,1.2-1,1.7-1.7c0.5-0.7,0.8-1.5,1-2.3
							l40.2-208.7c0.1-0.7,0.1-1.4-0.1-2.1c-0.2-0.7-0.5-1.3-0.9-1.9c-0.4-0.6-0.9-1.1-1.6-1.5
							C1355.9,997.8,1355.2,997.5,1354.4,997.3"/>
					</g>
				</g>
			</g>
			<g>
				<g class="st18">
					<g>
						<path class="st19" d="M1468,274.6l-68.4-72.3c-0.4-0.5-0.9-0.8-1.3-1.1c-0.5-0.3-0.9-0.5-1.3-0.6c-0.4-0.1-0.8-0.1-1.2-0.1
							c-0.4,0.1-0.7,0.3-0.9,0.5l-81.3,99.8c-0.4,0.5-0.7,1.1-0.8,1.8c-0.1,0.7-0.1,1.4,0,2.1c0.1,0.7,0.4,1.5,0.8,2.2
							c0.4,0.7,0.9,1.4,1.5,1.9l98.1,90.5c0.5,0.5,1.1,0.9,1.7,1.1c0.6,0.2,1.1,0.3,1.7,0.2c0.5-0.1,1-0.3,1.4-0.6
							c0.4-0.3,0.8-0.8,1-1.4l50.8-118.6c0.1-0.3,0.2-0.7,0.2-1.2c0-0.4-0.1-0.9-0.3-1.4c-0.2-0.5-0.4-1-0.7-1.5
							C1468.8,275.4,1468.4,275,1468,274.6"/>
					</g>
				</g>
			</g>
			<g>
				<g class="st18">
					<g>
						<path class="st19" d="M2184.7,780.1l-275.4-172.7c-1.7-1.1-3.5-1.7-5.3-1.9c-1.8-0.2-3.6-0.1-5.3,0.5
							c-1.7,0.5-3.3,1.4-4.7,2.6c-1.4,1.2-2.6,2.8-3.5,4.6l-210.7,436.2c-0.6,1.3-0.9,2.7-0.9,4.1c0,1.4,0.3,2.8,0.9,4.1
							c0.6,1.3,1.4,2.6,2.5,3.6c1.1,1.1,2.4,2,3.9,2.7l250.5,114.4c1.3,0.6,2.7,0.9,4.1,1c1.4,0.1,2.8-0.1,4.1-0.4
							c1.3-0.4,2.6-1,3.7-1.7c1.1-0.8,2.1-1.8,2.8-2.9l236.4-376.3c1-1.6,1.7-3.3,2-5c0.3-1.7,0.4-3.4,0.1-5
							c-0.3-1.6-0.8-3.2-1.7-4.5C2187.3,782.1,2186.1,780.9,2184.7,780.1"/>
					</g>
				</g>
			</g>
			<g>
				<g class="st18">
					<g>
						<path class="st19" d="M566.9,827.4L414,872c-0.9,0.3-1.7,0.7-2.4,1.2c-0.7,0.5-1.3,1.2-1.7,1.9c-0.4,0.7-0.7,1.5-0.8,2.4
							c-0.1,0.8-0.1,1.7,0.2,2.5l71.6,249.9c0.3,1,0.8,1.9,1.4,2.7c0.6,0.8,1.4,1.4,2.2,1.8c0.8,0.5,1.8,0.7,2.7,0.8
							c1,0.1,1.9,0,2.9-0.3l165.5-54.6c0.9-0.3,1.8-0.8,2.4-1.4c0.7-0.6,1.2-1.4,1.6-2.2c0.4-0.8,0.6-1.8,0.7-2.7
							c0-1-0.1-1.9-0.4-2.9l-84.5-239.6c-0.3-0.8-0.7-1.5-1.3-2.2c-0.6-0.6-1.3-1.1-2-1.5c-0.8-0.4-1.6-0.6-2.4-0.7
							C568.7,827.1,567.8,827.2,566.9,827.4"/>
					</g>
				</g>
			</g>
			<g>
				<g class="st18">
					<g>
						<path class="st19" d="M184,1165.5l-167.7,45.7c-1.3,0.3-2.4,0.8-3.3,1.2c-0.9,0.5-1.6,1-2,1.5c-0.4,0.5-0.6,1.1-0.6,1.6
							c0.1,0.5,0.4,1,1.1,1.5l318.9,220.6c2.1,1.4,4.3,2.5,6.6,3.2c2.3,0.7,4.6,1.1,6.7,1.1c2.2,0,4.2-0.4,6-1.1
							c1.8-0.7,3.3-1.9,4.4-3.3l121.7-157.1c0.4-0.5,0.5-1.2,0.3-1.9c-0.2-0.7-0.7-1.4-1.4-2.1c-0.7-0.7-1.6-1.5-2.8-2.1
							c-1.1-0.7-2.4-1.3-3.9-1.9l-274.3-106.3c-0.7-0.3-1.5-0.5-2.3-0.6c-0.8-0.2-1.7-0.3-2.6-0.3c-0.9,0-1.8,0-2.6,0
							C185.5,1165.2,184.7,1165.4,184,1165.5"/>
					</g>
				</g>
			</g>
			<g>
				<g class="st18">
					<g>
						<path class="st19" d="M211.7,741.8l-60.7-22.2c-0.3-0.1-0.6-0.1-0.7,0c-0.2,0.1-0.3,0.3-0.4,0.6c-0.1,0.3,0,0.6,0,1
							c0.1,0.4,0.2,0.9,0.5,1.4l48.5,111.7c0.2,0.4,0.4,0.7,0.6,1.1c0.2,0.4,0.5,0.8,0.8,1.1c0.3,0.4,0.6,0.7,0.9,1
							c0.3,0.3,0.6,0.6,0.9,0.7l56.8,36.6c0.4,0.3,0.8,0.4,1,0.5c0.3,0.1,0.5,0.1,0.7,0c0.2-0.1,0.3-0.3,0.3-0.5c0-0.2,0-0.6-0.2-1
							l-44.4-126.5c-0.2-0.6-0.5-1.2-0.9-1.8c-0.4-0.6-0.8-1.2-1.2-1.7c-0.4-0.5-0.9-1-1.4-1.3C212.6,742.3,212.1,742,211.7,741.8"
							/>
					</g>
				</g>
			</g>
			<g>
				<g class="st18">
					<g>
						<path class="st19" d="M1576.8,1234.7l-115.2,104c-0.6,0.6-1.2,1.2-1.7,1.8c-0.5,0.6-1,1.3-1.4,1.9c-0.4,0.6-0.7,1.2-0.9,1.8
							c-0.2,0.6-0.3,1.1-0.3,1.5l14.2,203.2c0.1,1.4,0.4,2.5,0.9,3.3c0.5,0.9,1.2,1.5,2,1.8c0.8,0.3,1.8,0.4,2.8,0.1
							c1.1-0.3,2.2-0.8,3.4-1.7l233.3-179.6c1.5-1.2,2.7-2.5,3.7-3.8c1-1.4,1.6-2.8,2-4.1c0.3-1.4,0.4-2.7,0.1-3.9
							c-0.3-1.2-0.9-2.3-1.9-3.2l-134.2-125.9c-0.3-0.2-0.6-0.3-1.1-0.3c-0.5,0-1,0.2-1.7,0.4c-0.6,0.3-1.3,0.6-2,1.1
							C1578.2,1233.5,1577.5,1234,1576.8,1234.7"/>
					</g>
				</g>
			</g>
			<g>
				<g class="st18">
					<g>
						<path class="st19" d="M1761.4,304.6l-101.9-136.2c-0.6-0.8-1.3-1.4-2.1-1.9c-0.8-0.5-1.6-0.8-2.5-1c-0.9-0.2-1.8-0.2-2.6,0
							c-0.9,0.2-1.7,0.5-2.5,1l-227,160.9c-0.9,0.7-1.7,1.5-2.3,2.4c-0.6,0.9-0.9,1.9-1.1,2.9c-0.2,1-0.1,2.1,0.1,3.1
							c0.2,1,0.7,2,1.4,2.9l117.3,151c0.7,0.9,1.5,1.5,2.4,2c0.9,0.5,1.9,0.8,2.9,0.8c1,0.1,2,0,3-0.3c1-0.3,2-0.8,2.8-1.6
							l211.1-176.1c0.7-0.6,1.2-1.3,1.6-2.1c0.4-0.8,0.6-1.7,0.7-2.5c0.1-0.9,0-1.8-0.3-2.7C1762.4,306.2,1762,305.3,1761.4,304.6"
							/>
					</g>
				</g>
			</g>
			<g>
				<g class="st18">
					<g>
						<path class="st19" d="M1015.5,1298.1l-91.8-82.5c-0.6-0.5-1.2-0.9-1.8-1.2c-0.6-0.3-1.3-0.4-1.9-0.4c-0.6,0-1.2,0.1-1.8,0.3
							c-0.6,0.2-1.1,0.6-1.5,1l-130,153.7c-0.6,0.7-1,1.5-1.3,2.3c-0.3,0.8-0.3,1.7-0.2,2.5c0.1,0.8,0.3,1.7,0.8,2.4
							c0.4,0.8,1,1.4,1.7,2l119.2,92.3c0.7,0.5,1.4,0.8,2.1,1c0.7,0.2,1.5,0.2,2.3,0c0.7-0.2,1.5-0.5,2.1-0.9
							c0.6-0.5,1.2-1.1,1.7-1.8l101.9-163.8c0.3-0.5,0.5-1.1,0.6-1.7c0.1-0.6,0.1-1.3-0.1-1.9c-0.1-0.6-0.4-1.3-0.7-1.9
							C1016.4,1299.1,1016,1298.6,1015.5,1298.1"/>
					</g>
				</g>
			</g>
			<g>
				<g class="st18">
					<g>
						<path class="st19" d="M621,498.2l-39.3,42.7c-0.3,0.3-0.5,0.6-0.6,0.9c-0.1,0.3-0.1,0.7-0.1,1c0.1,0.3,0.2,0.6,0.4,0.9
							c0.2,0.3,0.5,0.5,0.9,0.7l97.2,52.4c0.4,0.2,0.9,0.4,1.3,0.4c0.5,0.1,0.9,0.1,1.3,0c0.4-0.1,0.8-0.2,1.2-0.5
							c0.4-0.2,0.7-0.5,0.9-0.9l33.4-50.5c0.2-0.3,0.3-0.6,0.3-0.9c0-0.3,0-0.7-0.2-1c-0.1-0.3-0.3-0.6-0.6-0.9
							c-0.3-0.3-0.6-0.5-1-0.7l-91.1-44.4c-0.3-0.2-0.7-0.3-1.1-0.3c-0.4-0.1-0.8-0.1-1.2,0c-0.4,0.1-0.7,0.2-1.1,0.3
							C621.5,497.7,621.3,497.9,621,498.2"/>
					</g>
				</g>
			</g>
			<g>
				<g class="st18">
					<g>
						<path class="st19" d="M1631.2,644.8l-47-34.4c-0.3-0.2-0.6-0.4-1-0.5c-0.3-0.1-0.6-0.1-0.9-0.1c-0.3,0-0.6,0.1-0.8,0.2
							c-0.2,0.1-0.4,0.3-0.6,0.6l-36.8,71c-0.2,0.3-0.3,0.7-0.3,1.1c0,0.4,0,0.8,0.2,1.2c0.1,0.4,0.3,0.8,0.6,1.1
							c0.3,0.3,0.6,0.6,0.9,0.9l55.4,36.8c0.3,0.2,0.7,0.4,1,0.4c0.3,0.1,0.7,0.1,1,0c0.3-0.1,0.6-0.2,0.8-0.4
							c0.2-0.2,0.4-0.5,0.6-0.8l28.1-73.5c0.1-0.3,0.1-0.6,0.1-0.9c0-0.3-0.1-0.6-0.2-0.9c-0.1-0.3-0.3-0.6-0.5-0.9
							C1631.8,645.3,1631.5,645,1631.2,644.8"/>
					</g>
				</g>
			</g>
		</g>
	</g>
</g>
</svg>
